<?xml version="1.0" encoding="utf-8"?>
<!-- Generator: Adobe Illustrator 15.1.0, SVG Export Plug-In . SVG Version: 6.00 Build 0)  -->
<!DOCTYPE svg PUBLIC "-//W3C//DTD SVG 1.1//EN" "http://www.w3.org/Graphics/SVG/1.1/DTD/svg11.dtd">
<svg version="1.1"
	 id="svg5324" xmlns:rdf="http://www.w3.org/1999/02/22-rdf-syntax-ns#" xmlns:inkscape="http://www.inkscape.org/namespaces/inkscape" sodipodi:version="0.32" xmlns:svg="http://www.w3.org/2000/svg" xmlns:dc="http://purl.org/dc/elements/1.1/" xmlns:sodipodi="http://sodipodi.sourceforge.net/DTD/sodipodi-0.dtd" xmlns:cc="http://web.resource.org/cc/" xmlns:ns1="http://sozi.baierouge.fr" sodipodi:docbase="C:\Documents and Settings\Molumen\Desktop" inkscape:version="0.44+devel" sodipodi:docname="rihard_Computer_LCD_display.svg" sodipodi:modified="true" inkscape:output_extension="org.inkscape.output.svg.inkscape"
	 xmlns="http://www.w3.org/2000/svg" xmlns:xlink="http://www.w3.org/1999/xlink" x="0px" y="0px" width="128px" height="128px"
	 viewBox="0 0 128 128" enable-background="new 0 0 128 128" xml:space="preserve">
<g id="layer1" transform="translate(-98.261 -127.61)" inkscape:label="Layer 1" inkscape:groupmode="layer">
	<g id="g2093" transform="matrix(.94247 0 0 .94247 21.367 22.435)">
		<g id="g2084">
			<g id="g5182" transform="matrix(1.2815 0 0 1.2815 19.881 56.719)">
				
					<radialGradient id="path5184_1_" cx="643.2422" cy="-4810.5674" r="146.5623" gradientTransform="matrix(0.3716 0 0 -0.0551 -137.8802 -126.7029)" gradientUnits="userSpaceOnUse">
					<stop  offset="0" style="stop-color:#FFFFFF"/>
					<stop  offset="1" style="stop-color:#E0DBC4"/>
				</radialGradient>
				<path id="path5184" sodipodi:nodetypes="cssscsc" fill="url(#path5184_1_)" d="M68.801,136.194
					c-0.961,0.881-1.996,1.678-1.996,2.275c0,2.933,15.383,5.316,34.337,5.316s34.337-2.383,34.337-5.316
					c0-0.597-1.422-1.825-2.253-2.534c-1.931,2.635-15.327,5.508-32.083,5.508C84.384,141.442,70.73,138.829,68.801,136.194z"/>
				
					<radialGradient id="path5186_1_" cx="805.3138" cy="-5856.9331" r="139.7798" gradientTransform="matrix(0.283 0 0 -0.0459 -126.7306 -132.0598)" gradientUnits="userSpaceOnUse">
					<stop  offset="0" style="stop-color:#DEDBC7"/>
					<stop  offset="1" style="stop-color:#F4F1E3"/>
				</radialGradient>
				
					<path id="path5186" sodipodi:type="arc" sodipodi:ry="22.688124" sodipodi:cy="440.30438" sodipodi:rx="139.77971" sodipodi:cx="266.52026" fill="url(#path5186_1_)" d="
					M133.894,136.938c0,2.936-14.662,5.315-32.748,5.315c-18.087,0-32.748-2.38-32.748-5.315c0-2.936,14.662-5.315,32.748-5.315
					C119.232,131.622,133.894,134.002,133.894,136.938z"/>
			</g>
			
				<radialGradient id="path5272_1_" cx="908.6719" cy="-9279.5527" r="177.3931" gradientTransform="matrix(0.34 0 0 -0.0371 -159.4758 -112.0126)" gradientUnits="userSpaceOnUse">
				<stop  offset="0" style="stop-color:#000000"/>
				<stop  offset="1" style="stop-color:#000000;stop-opacity:0"/>
			</radialGradient>
			
				<path id="path5272" sodipodi:type="arc" sodipodi:ry="23.603386" sodipodi:cy="438.67413" sodipodi:rx="177.3942" sodipodi:cx="274.75818" opacity="0.1922" fill="url(#path5272_1_)" enable-background="new    " d="
				M213.493,231.895c0,3.852-28.654,6.976-64,6.976c-35.346,0-64-3.123-64-6.976c0-3.853,28.654-6.976,64-6.976
				C184.838,224.919,213.493,228.042,213.493,231.895z"/>
			<g id="g5188" transform="matrix(1.2815 0 0 1.2815 26.824 49.03)">
				<path id="path5190" sodipodi:nodetypes="ccccccccc" fill="#B4B190" d="M86.77,140.188h17.908c0.254,0,0.454,0.202,0.454,0.455
					v2.392c0,0.251-0.201,0.452-0.454,0.452c-5.969,1.083-11.939,0.87-17.908,0c-0.251,0-0.452-0.201-0.452-0.452v-2.392
					C86.317,140.39,86.519,140.188,86.77,140.188z"/>
				
					<linearGradient id="path5192_1_" gradientUnits="userSpaceOnUse" x1="376.2679" y1="-617.8922" x2="376.2679" y2="-712.3024" gradientTransform="matrix(0.283 0 0 -0.283 -10.7459 -54.1444)">
					<stop  offset="0" style="stop-color:#D4CFB4"/>
					<stop  offset="0.5" style="stop-color:#D8D3BE"/>
					<stop  offset="1" style="stop-color:#FAF8EF"/>
				</linearGradient>
				<path id="path5192" fill="url(#path5192_1_)" d="M86.317,120.698v22.119h18.815v-22.119h-6.046v2.08
					c0,0.743-0.602,1.338-1.347,1.338h-4.035c-0.745,0-1.34-0.595-1.34-1.338v-2.08H86.317z"/>
			</g>
		</g>
		<g id="g5691">
			
				<radialGradient id="rect5196_1_" cx="817.0979" cy="-396.5518" r="182.2874" gradientTransform="matrix(0.3807 0 0 -0.3407 -161.5527 -13.3799)" gradientUnits="userSpaceOnUse">
				<stop  offset="0" style="stop-color:#FFFFFF"/>
				<stop  offset="1" style="stop-color:#EFEDE5"/>
			</radialGradient>
			<path id="rect5196" fill="url(#rect5196_1_)" d="M96.704,118.028h105.579c1.19,0,2.153,0.964,2.153,2.153v83.661
				c0,1.19-0.964,2.153-2.153,2.153H96.704c-1.189,0-2.153-0.964-2.153-2.153v-83.661C94.551,118.992,95.515,118.028,96.704,118.028
				z"/>
			
				<linearGradient id="rect5198_1_" gradientUnits="userSpaceOnUse" x1="1418.1128" y1="-889.345" x2="1418.1128" y2="-1380.714" gradientTransform="matrix(0.2208 0 0 -0.2208 -163.6382 -114.2054)">
				<stop  offset="0" style="stop-color:#9DDBFF"/>
				<stop  offset="1" style="stop-color:#1463AF"/>
			</linearGradient>
			<rect id="rect5198" x="101.156" y="124.633" fill="url(#rect5198_1_)" width="96.674" height="72.657"/>
			
				<linearGradient id="path5200_1_" gradientUnits="userSpaceOnUse" x1="1044.9722" y1="-491.4896" x2="1044.9722" y2="-743.3716" gradientTransform="matrix(0.283 0 0 -0.311 -146.1957 -69.2902)">
				<stop  offset="0" style="stop-color:#FFFFFF"/>
				<stop  offset="1" style="stop-color:#FFFFFF;stop-opacity:0"/>
			</linearGradient>
			<path id="path5200" fill="url(#path5200_1_)" d="M101.158,124.635v39.411h96.674v-39.411H101.158z"/>
			<path id="path5202" sodipodi:nodetypes="ccccc" fill="#DEDBC7" d="M99.279,122.831h100.291l-1.741,1.801h-96.674L99.279,122.831
				L99.279,122.831z"/>
			
				<linearGradient id="path5204_1_" gradientUnits="userSpaceOnUse" x1="876.2634" y1="-894.4326" x2="876.2634" y2="-684.6663" gradientTransform="matrix(0.283 0 0 -0.283 -147.6971 -60.9756)">
				<stop  offset="0" style="stop-color:#DEDBC7"/>
				<stop  offset="1" style="stop-color:#FFFFFF"/>
			</linearGradient>
			<path id="path5204" sodipodi:nodetypes="ccccc" fill="url(#path5204_1_)" d="M99.354,199.063v-76.157l1.802,1.675v72.647
				L99.354,199.063z"/>
			<path id="path5206" sodipodi:nodetypes="ccccc" fill="#FCFCF6" d="M199.676,199.114H99.279l1.792-1.799h96.781L199.676,199.114z"
				/>
			
				<linearGradient id="path5208_1_" gradientUnits="userSpaceOnUse" x1="-934.8545" y1="-894.4347" x2="-934.8545" y2="-684.6651" gradientTransform="matrix(-0.283 0 0 -0.283 -65.8086 -60.8461)">
				<stop  offset="0" style="stop-color:#DEDBC7"/>
				<stop  offset="1" style="stop-color:#FFFFFF"/>
			</linearGradient>
			<path id="path5208" sodipodi:nodetypes="ccccc" fill="url(#path5208_1_)" d="M199.622,199.09v-76.265l-1.8,1.886v72.595
				L199.622,199.09z"/>
			<g id="g5210" transform="matrix(1.2815 0 0 1.2815 15.881 49.03)">
				<g id="g5212" transform="translate(-8.4839 -26.418)">
					
						<radialGradient id="path5214_1_" cx="284.8199" cy="-0.6868" r="5.75" gradientTransform="matrix(1.2877 0 0 -1.4104 -252.6983 146.6567)" gradientUnits="userSpaceOnUse">
						<stop  offset="0" style="stop-color:#FFFFFF"/>
						<stop  offset="1" style="stop-color:#E0DBC4"/>
					</radialGradient>
					
						<path id="path5214" sodipodi:type="arc" sodipodi:ry="5.75" sodipodi:cy="387.61218" sodipodi:rx="5.75" sodipodi:cx="288.25" fill="url(#path5214_1_)" d="
						M115.106,146.181c0,1.302-1.055,2.357-2.358,2.357c-1.302,0-2.357-1.055-2.357-2.357c0-1.303,1.056-2.358,2.357-2.358
						C114.051,143.824,115.106,144.879,115.106,146.181z"/>
					
						<path id="path5216" sodipodi:type="arc" sodipodi:ry="5.75" sodipodi:cy="387.61218" sodipodi:rx="5.75" sodipodi:cx="288.25" fill="#B4B190" fill-opacity="0.4009" d="
						M114.769,146.181c0,1.116-0.906,2.021-2.021,2.021c-1.116,0-2.021-0.905-2.021-2.021c0-1.117,0.904-2.021,2.021-2.021
						C113.863,144.16,114.769,145.064,114.769,146.181z"/>
					
						<radialGradient id="path5218_1_" cx="379.3086" cy="-119.3948" r="5.7518" gradientTransform="matrix(0.7958 0 0 -0.8666 -189.2915 40.8614)" gradientUnits="userSpaceOnUse">
						<stop  offset="0" style="stop-color:#FFFFFF"/>
						<stop  offset="1" style="stop-color:#E0DBC4"/>
					</radialGradient>
					
						<path id="path5218" sodipodi:type="arc" sodipodi:ry="5.75" sodipodi:cy="387.61218" sodipodi:rx="5.75" sodipodi:cx="288.25" fill="url(#path5218_1_)" d="
						M114.685,146.181c0,1.07-0.868,1.936-1.937,1.936s-1.937-0.867-1.937-1.936c0-1.069,0.867-1.937,1.937-1.937
						S114.685,145.112,114.685,146.181z"/>
					
						<radialGradient id="path5220_1_" cx="264.9948" cy="13.8516" r="5.7586" gradientTransform="matrix(1.4625 0 0 -1.495 -274.7968 165.2932)" gradientUnits="userSpaceOnUse">
						<stop  offset="0" style="stop-color:#DEDBC7"/>
						<stop  offset="1" style="stop-color:#FFFFFF"/>
					</radialGradient>
					
						<path id="path5220" sodipodi:type="arc" sodipodi:ry="5.75" sodipodi:cy="387.61218" sodipodi:rx="5.75" sodipodi:cx="288.25" fill="url(#path5220_1_)" d="
						M114.329,146.18c0,0.874-0.708,1.582-1.582,1.582c-0.873,0-1.582-0.707-1.582-1.582c0-0.873,0.708-1.581,1.582-1.581
						C113.62,144.599,114.329,145.307,114.329,146.18z"/>
					
						<radialGradient id="path5222_1_" cx="576.197" cy="-252.4317" r="5.5102" gradientTransform="matrix(0.428 0 0 -0.566 -133.8709 2.8871)" gradientUnits="userSpaceOnUse">
						<stop  offset="0" style="stop-color:#31E8FF"/>
						<stop  offset="1" style="stop-color:#4283C1"/>
					</radialGradient>
					<path id="path5222" fill="url(#path5222_1_)" d="M112.749,144.757c-0.082,0-0.148,0.064-0.148,0.146v1.326
						c0,0.079,0.065,0.146,0.148,0.146c0.08,0,0.145-0.066,0.145-0.146v-1.326C112.894,144.821,112.828,144.757,112.749,144.757z
						 M112.461,145.054c-0.577,0.132-1.005,0.647-1.005,1.261c0,0.714,0.579,1.293,1.293,1.293c0.712,0,1.294-0.579,1.294-1.293
						c0-0.615-0.432-1.13-1.005-1.261v0.302c0.412,0.125,0.712,0.506,0.712,0.959c0,0.552-0.447,0.999-1,0.999
						c-0.553,0-1.001-0.447-1.001-0.999c0-0.453,0.3-0.834,0.712-0.959V145.054z"/>
				</g>
				<g id="g5224" transform="matrix(.80357 0 0 .80357 64.82 23.134)">
					
						<radialGradient id="path5226_1_" cx="415.6627" cy="-253.5606" r="5.7508" gradientTransform="matrix(0.7198 0 0 -0.7885 -243.375 -78.6646)" gradientUnits="userSpaceOnUse">
						<stop  offset="0" style="stop-color:#FFFFFF"/>
						<stop  offset="1" style="stop-color:#E0DBC4"/>
					</radialGradient>
					
						<path id="path5226" sodipodi:type="arc" sodipodi:ry="5.75" sodipodi:cy="387.61218" sodipodi:rx="5.75" sodipodi:cx="288.25" fill="url(#path5226_1_)" d="
						M56.558,120.251c0,0.906-0.735,1.64-1.64,1.64c-0.907,0-1.64-0.735-1.64-1.64c0-0.907,0.734-1.64,1.64-1.64
						C55.824,118.611,56.558,119.345,56.558,120.251z"/>
					
						<path id="path5228" sodipodi:type="arc" sodipodi:ry="5.75" sodipodi:cy="387.61218" sodipodi:rx="5.75" sodipodi:cx="288.25" fill="#A6A48B" fill-opacity="0.4009" d="
						M56.324,120.252c0,0.777-0.629,1.406-1.405,1.406c-0.777,0-1.407-0.629-1.407-1.406s0.63-1.406,1.407-1.406
						C55.695,118.847,56.324,119.475,56.324,120.252z"/>
					
						<radialGradient id="path5230_1_" cx="627.4706" cy="-521.1938" r="5.75" gradientTransform="matrix(0.4449 0 0 -0.4844 -224.3486 -133.5156)" gradientUnits="userSpaceOnUse">
						<stop  offset="0" style="stop-color:#FFFFFF"/>
						<stop  offset="1" style="stop-color:#E0DBC4"/>
					</radialGradient>
					
						<path id="path5230" sodipodi:type="arc" sodipodi:ry="5.75" sodipodi:cy="387.61218" sodipodi:rx="5.75" sodipodi:cx="288.25" fill="url(#path5230_1_)" d="
						M56.264,120.25c0,0.745-0.603,1.347-1.347,1.347c-0.744,0-1.346-0.603-1.346-1.347s0.603-1.347,1.346-1.347
						C55.662,118.903,56.264,119.506,56.264,120.25z"/>
				</g>
				<g id="g5232" transform="matrix(.80357 0 0 .80357 84.82 23.134)">
					
						<radialGradient id="path5234_1_" cx="390.7748" cy="-253.5606" r="5.7508" gradientTransform="matrix(0.7198 0 0 -0.7885 -244.5171 -78.6646)" gradientUnits="userSpaceOnUse">
						<stop  offset="0" style="stop-color:#FFFFFF"/>
						<stop  offset="1" style="stop-color:#E0DBC4"/>
					</radialGradient>
					
						<path id="path5234" sodipodi:type="arc" sodipodi:ry="5.75" sodipodi:cy="387.61218" sodipodi:rx="5.75" sodipodi:cx="288.25" fill="url(#path5234_1_)" d="
						M37.5,120.251c0,0.906-0.735,1.64-1.64,1.64c-0.906,0-1.64-0.735-1.64-1.64c0-0.907,0.735-1.64,1.64-1.64
						C36.766,118.611,37.5,119.345,37.5,120.251z"/>
					
						<path id="path5236" sodipodi:type="arc" sodipodi:ry="5.75" sodipodi:cy="387.61218" sodipodi:rx="5.75" sodipodi:cx="288.25" fill="#A6A48B" fill-opacity="0.4009" d="
						M37.267,120.252c0,0.777-0.63,1.406-1.406,1.406c-0.777,0-1.406-0.629-1.406-1.406s0.629-1.406,1.406-1.406
						C36.637,118.847,37.267,119.475,37.267,120.252z"/>
					
						<radialGradient id="path5238_1_" cx="602.5807" cy="-521.1938" r="5.7518" gradientTransform="matrix(0.4449 0 0 -0.4844 -232.3341 -133.5156)" gradientUnits="userSpaceOnUse">
						<stop  offset="0" style="stop-color:#FFFFFF"/>
						<stop  offset="1" style="stop-color:#E0DBC4"/>
					</radialGradient>
					
						<path id="path5238" sodipodi:type="arc" sodipodi:ry="5.75" sodipodi:cy="387.61218" sodipodi:rx="5.75" sodipodi:cx="288.25" fill="url(#path5238_1_)" d="
						M37.206,120.25c0,0.745-0.603,1.347-1.346,1.347c-0.745,0-1.348-0.603-1.348-1.347s0.604-1.347,1.348-1.347
						C36.604,118.903,37.206,119.506,37.206,120.25z"/>
				</g>
				<g id="g5240" transform="matrix(.80357 0 0 .80357 104.82 23.134)">
					
						<radialGradient id="path5242_1_" cx="365.8848" cy="-253.5606" r="5.7508" gradientTransform="matrix(0.7198 0 0 -0.7885 -245.6592 -78.6646)" gradientUnits="userSpaceOnUse">
						<stop  offset="0" style="stop-color:#FFFFFF"/>
						<stop  offset="1" style="stop-color:#E0DBC4"/>
					</radialGradient>
					
						<path id="path5242" sodipodi:type="arc" sodipodi:ry="5.75" sodipodi:cy="387.61218" sodipodi:rx="5.75" sodipodi:cx="288.25" fill="url(#path5242_1_)" d="
						M18.442,120.251c0,0.906-0.734,1.64-1.64,1.64c-0.906,0-1.64-0.735-1.64-1.64c0-0.907,0.735-1.64,1.64-1.64
						C17.709,118.611,18.442,119.345,18.442,120.251z"/>
					
						<path id="path5244" sodipodi:type="arc" sodipodi:ry="5.75" sodipodi:cy="387.61218" sodipodi:rx="5.75" sodipodi:cx="288.25" fill="#A6A48B" fill-opacity="0.4009" d="
						M18.209,120.252c0,0.777-0.629,1.406-1.406,1.406s-1.406-0.629-1.406-1.406s0.629-1.406,1.406-1.406
						S18.209,119.475,18.209,120.252z"/>
					
						<radialGradient id="path5246_1_" cx="577.6927" cy="-521.1938" r="5.75" gradientTransform="matrix(0.4449 0 0 -0.4844 -240.3196 -133.5156)" gradientUnits="userSpaceOnUse">
						<stop  offset="0" style="stop-color:#FFFFFF"/>
						<stop  offset="1" style="stop-color:#E0DBC4"/>
					</radialGradient>
					
						<path id="path5246" sodipodi:type="arc" sodipodi:ry="5.75" sodipodi:cy="387.61218" sodipodi:rx="5.75" sodipodi:cx="288.25" fill="url(#path5246_1_)" d="
						M18.15,120.25c0,0.745-0.604,1.347-1.348,1.347c-0.744,0-1.346-0.603-1.346-1.347s0.603-1.347,1.346-1.347
						C17.546,118.903,18.15,119.506,18.15,120.25z"/>
				</g>
				<g id="g5248" transform="matrix(.80357 0 0 .80357 24.82 23.134)">
					
						<radialGradient id="path5250_1_" cx="465.4416" cy="-253.5606" r="5.7508" gradientTransform="matrix(0.7198 0 0 -0.7885 -241.0912 -78.6646)" gradientUnits="userSpaceOnUse">
						<stop  offset="0" style="stop-color:#FFFFFF"/>
						<stop  offset="1" style="stop-color:#E0DBC4"/>
					</radialGradient>
					
						<path id="path5250" sodipodi:type="arc" sodipodi:ry="5.75" sodipodi:cy="387.61218" sodipodi:rx="5.75" sodipodi:cx="288.25" fill="url(#path5250_1_)" d="
						M94.674,120.251c0,0.906-0.734,1.64-1.64,1.64c-0.906,0-1.64-0.735-1.64-1.64c0-0.907,0.735-1.64,1.64-1.64
						C93.94,118.611,94.674,119.345,94.674,120.251z"/>
					
						<path id="path5252" sodipodi:type="arc" sodipodi:ry="5.75" sodipodi:cy="387.61218" sodipodi:rx="5.75" sodipodi:cx="288.25" fill="#A6A48B" fill-opacity="0.4009" d="
						M94.44,120.252c0,0.777-0.629,1.406-1.406,1.406c-0.776,0-1.406-0.629-1.406-1.406s0.629-1.406,1.406-1.406
						C93.811,118.847,94.44,119.475,94.44,120.252z"/>
					
						<radialGradient id="path5254_1_" cx="677.2485" cy="-521.1938" r="5.75" gradientTransform="matrix(0.4449 0 0 -0.4844 -208.3776 -133.5156)" gradientUnits="userSpaceOnUse">
						<stop  offset="0" style="stop-color:#FFFFFF"/>
						<stop  offset="1" style="stop-color:#E0DBC4"/>
					</radialGradient>
					
						<path id="path5254" sodipodi:type="arc" sodipodi:ry="5.75" sodipodi:cy="387.61218" sodipodi:rx="5.75" sodipodi:cx="288.25" fill="url(#path5254_1_)" d="
						M94.38,120.25c0,0.745-0.603,1.347-1.347,1.347c-0.744,0-1.347-0.603-1.347-1.347s0.603-1.347,1.347-1.347
						C93.777,118.903,94.38,119.506,94.38,120.25z"/>
				</g>
				<g id="g5256" transform="matrix(.80357 0 0 .80357 4.8199 23.134)">
					
						<radialGradient id="path5258_1_" cx="490.3287" cy="-253.5606" r="5.7513" gradientTransform="matrix(0.7198 0 0 -0.7885 -239.9491 -78.6646)" gradientUnits="userSpaceOnUse">
						<stop  offset="0" style="stop-color:#FFFFFF"/>
						<stop  offset="1" style="stop-color:#E0DBC4"/>
					</radialGradient>
					
						<path id="path5258" sodipodi:type="arc" sodipodi:ry="5.75" sodipodi:cy="387.61218" sodipodi:rx="5.75" sodipodi:cx="288.25" fill="url(#path5258_1_)" d="
						M113.732,120.251c0,0.906-0.735,1.64-1.64,1.64s-1.64-0.735-1.64-1.64c0-0.907,0.735-1.64,1.64-1.64
						S113.732,119.345,113.732,120.251z"/>
					
						<path id="path5260" sodipodi:type="arc" sodipodi:ry="5.75" sodipodi:cy="387.61218" sodipodi:rx="5.75" sodipodi:cx="288.25" fill="#A6A48B" fill-opacity="0.4009" d="
						M113.498,120.252c0,0.777-0.629,1.406-1.406,1.406c-0.776,0-1.406-0.629-1.406-1.406s0.629-1.406,1.406-1.406
						C112.869,118.847,113.498,119.475,113.498,120.252z"/>
					
						<radialGradient id="path5262_1_" cx="702.1376" cy="-521.1938" r="5.75" gradientTransform="matrix(0.4449 0 0 -0.4844 -200.392 -133.5156)" gradientUnits="userSpaceOnUse">
						<stop  offset="0" style="stop-color:#FFFFFF"/>
						<stop  offset="1" style="stop-color:#E0DBC4"/>
					</radialGradient>
					
						<path id="path5262" sodipodi:type="arc" sodipodi:ry="5.75" sodipodi:cy="387.61218" sodipodi:rx="5.75" sodipodi:cx="288.25" fill="url(#path5262_1_)" d="
						M113.438,120.25c0,0.745-0.603,1.347-1.347,1.347c-0.744,0-1.347-0.603-1.347-1.347s0.603-1.347,1.347-1.347
						C112.835,118.903,113.438,119.506,113.438,120.25z"/>
				</g>
				<g id="g5264" transform="matrix(.80357 0 0 .80357 -15.18 23.134)">
					
						<radialGradient id="path5266_1_" cx="515.2195" cy="-253.5606" r="5.7508" gradientTransform="matrix(0.7198 0 0 -0.7885 -238.807 -78.6646)" gradientUnits="userSpaceOnUse">
						<stop  offset="0" style="stop-color:#FFFFFF"/>
						<stop  offset="1" style="stop-color:#E0DBC4"/>
					</radialGradient>
					
						<path id="path5266" sodipodi:type="arc" sodipodi:ry="5.75" sodipodi:cy="387.61218" sodipodi:rx="5.75" sodipodi:cx="288.25" fill="url(#path5266_1_)" d="
						M132.789,120.251c0,0.906-0.735,1.64-1.64,1.64c-0.906,0-1.64-0.735-1.64-1.64c0-0.907,0.734-1.64,1.64-1.64
						C132.055,118.611,132.789,119.345,132.789,120.251z"/>
					
						<path id="path5268" sodipodi:type="arc" sodipodi:ry="5.75" sodipodi:cy="387.61218" sodipodi:rx="5.75" sodipodi:cx="288.25" fill="#A6A48B" fill-opacity="0.4009" d="
						M132.555,120.252c0,0.777-0.629,1.406-1.406,1.406s-1.406-0.629-1.406-1.406s0.629-1.406,1.406-1.406
						S132.555,119.475,132.555,120.252z"/>
					
						<radialGradient id="path5270_1_" cx="727.0264" cy="-521.1938" r="5.75" gradientTransform="matrix(0.4449 0 0 -0.4844 -192.4076 -133.5156)" gradientUnits="userSpaceOnUse">
						<stop  offset="0" style="stop-color:#FFFFFF"/>
						<stop  offset="1" style="stop-color:#E0DBC4"/>
					</radialGradient>
					
						<path id="path5270" sodipodi:type="arc" sodipodi:ry="5.75" sodipodi:cy="387.61218" sodipodi:rx="5.75" sodipodi:cx="288.25" fill="url(#path5270_1_)" d="
						M132.496,120.25c0,0.745-0.603,1.347-1.347,1.347c-0.744,0-1.347-0.603-1.347-1.347s0.603-1.347,1.347-1.347
						C131.892,118.903,132.496,119.506,132.496,120.25z"/>
				</g>
			</g>
		</g>
	</g>
</g>
<linearGradient id="SVGID_1_" gradientUnits="userSpaceOnUse" x1="64.3091" y1="23.6719" x2="64.3091" y2="80.7642">
	<stop  offset="0" style="stop-color:#FFFFFF"/>
	<stop  offset="1" style="stop-color:#FFFFFF;stop-opacity:0"/>
</linearGradient>
<path fill="url(#SVGID_1_)" d="M83.732,32.31c0.301,2.411,0.352,1.674,0.352,4.293c1.268,0.219,0.851,0.922,0.818,2.045
	c-0.027,1.098-0.313,3.615-1.307,4.258c-0.309,0.199-0.598,0.199-0.943,0.239l-0.193,4.703c-0.013,0.489-0.179,1.853,0,2.186
	c0.292,0.486,0.945,0.445,1.42,0.603c0.665,0.221,1.125,0.605,1.601,1.104c1.248,1.306,2.155,3.285,3.716,4.165l4.498,1.553
	c1.902,0.831,2.5,1.9,3.893,2.937c1.108,0.826,1.615,0.722,2.623,1.977c1.697,2.118,1.918,3.495,2.638,5.922l0.564,1.838
	l0.604,5.316c0.121,1.266-0.124,2.625,0.205,3.885l0.514,1.43h-52.75c-0.025-0.832-0.546-1.684-0.875-2.453
	c-0.953-2.223-0.595-2.842-2.805-4.371c-1.214-0.84-4.6-2.023-6.133-2.666c-4.727-1.982-6.864-2.719-11.45-5.348
	c-2.56-1.468-5.455-2.588-6.53-5.605c-0.239-0.669-0.397-1.333-0.25-2.045c0.194-0.926,1.171-2.583,1.891-3.188l1.354-0.957
	c0.525-0.486,1.183-1.375,1.567-1.989c0.794-1.263,1.805-3.023,3.008-3.925c0.836-0.627,1.382-0.609,2.23-0.971l2.658-1.552
	c1.446-0.93,2.332-2.316,4.089-1.934c0.534-0.918,1.583-1.286,2.454-1.857c0.691-0.452,1.683-1.275,2.454-1.484
	c0.875-0.237,1.039,0.212,1.875-0.108l6.099-3.337c1.664-0.828,6.732-2.449,8.587-2.824l0.205,0.205l-0.205,0.613l3.476-0.409
	c0-2.11-0.292-4.443,0.832-6.338c0.321-0.542,0.748-0.961,1.177-1.413c1.83-1.931,2.213-1.901,4.738-2.547
	c2.827-0.722,4.308-0.981,6.97,0.411c1.024,0.536,1.146,0.497,2.019,1.391C83.281,27.969,83.426,29.848,83.732,32.31 M58.731,41.261
	c-1.051,0.65-1.609,0.749-1.779,1.038c0.288-0.118,2.07-1.806,3.062-1.663c0.906,0.132,1.693,0.904,0.785,1.667
	c-0.8,0.67-1.667,1.637-2.666,1.841c-1.912,0.391-2.312,1.724-4.727,1.779l-2.648,0.305c-1.914,0.253-2.597,1.348-4.09,2.271
	l-2.453,1.19l-0.614-0.409c-0.024,0.351-0.466,2.482-1.022,1.636l-0.614,1.227c0.47,0.188,0.37,0.323,0.409,0.817l-0.409-0.204
	c-0.423,1.523-0.877,2.265-1.84,3.51h2.862l1.431-0.235l3.271-0.378l4.498-0.268l1.432-0.442l2.453-0.305
	c0.904-0.055,3.893,0.747,4.069,0.728c1.075-0.117,1.104-2.325,2.478-2.493c1.248-0.153,1.703,1.855,3.265,1.599
	c1.296-0.213,2.643-3.183,2.875-4.375c0.174-0.897-0.51-4.69-0.961-5.461c-0.416-0.711-0.771-0.198-1.471-1.495
	c-0.762-1.412-1.129-3.504-1.26-5.107L58.731,41.261z M62.411,52.959l-1.227,2.658l2.659-1.227
	C63.419,53.548,63.315,53.299,62.411,52.959"/>
</svg>
