<?xml version="1.0" encoding="utf-8"?>
<!-- Generator: Adobe Illustrator 15.1.0, SVG Export Plug-In . SVG Version: 6.00 Build 0)  -->
<!DOCTYPE svg PUBLIC "-//W3C//DTD SVG 1.1//EN" "http://www.w3.org/Graphics/SVG/1.1/DTD/svg11.dtd">
<svg version="1.1" id="Layer_1" xmlns="http://www.w3.org/2000/svg" xmlns:xlink="http://www.w3.org/1999/xlink" x="0px" y="0px"
	 width="128px" height="128px" viewBox="0 0 128 128" enable-background="new 0 0 128 128" xml:space="preserve">
<g id="svg5324" sodipodi:modified="true" sodipodi:docname="rihard_Computer_LCD_display.svg" xmlns:svg="http://www.w3.org/2000/svg" xmlns:inkscape="http://www.inkscape.org/namespaces/inkscape" xmlns:sodipodi="http://sodipodi.sourceforge.net/DTD/sodipodi-0.dtd" xmlns:rdf="http://www.w3.org/1999/02/22-rdf-syntax-ns#" xmlns:cc="http://web.resource.org/cc/" xmlns:dc="http://purl.org/dc/elements/1.1/" sodipodi:version="0.32" inkscape:output_extension="org.inkscape.output.svg.inkscape" inkscape:version="0.44+devel" sodipodi:docbase="C:\Documents and Settings\Molumen\Desktop" xmlns:ns1="http://sozi.baierouge.fr">
	
		<sodipodi:namedview  inkscape:pageshadow="2" objecttolerance="10" borderopacity="1.0" inkscape:window-height="977" inkscape:guide-bbox="true" inkscape:zoom="0.7" bordercolor="#666666" inkscape:document-units="px" inkscape:window-width="1280" inkscape:cx="466.66505" pagecolor="#ffffff" id="base" guidetolerance="10" inkscape:window-x="119" inkscape:pageopacity="0.0" gridtolerance="10000" inkscape:cy="238.97378" inkscape:window-y="101" showguides="true" inkscape:current-layer="layer1">
		</sodipodi:namedview>
	<g id="layer1" transform="translate(-98.261 -127.61)" inkscape:groupmode="layer" inkscape:label="Layer 1">
		<g id="g2093" transform="matrix(.94247 0 0 .94247 21.367 22.435)">
			<g id="g2084">
				<g id="g5182" transform="matrix(1.2815 0 0 1.2815 19.881 56.719)">
					
						<radialGradient id="path5184_1_" cx="856.0956" cy="8591.1025" r="146.5761" gradientTransform="matrix(0.4488 0 0 0.0665 -283.0817 -433.3647)" gradientUnits="userSpaceOnUse">
						<stop  offset="0" style="stop-color:#FFFFFF"/>
						<stop  offset="1" style="stop-color:#E0DBC4"/>
					</radialGradient>
					<path id="path5184" sodipodi:nodetypes="cssscsc" fill="url(#path5184_1_)" d="M68.801,136.194
						c-0.961,0.881-1.996,1.678-1.996,2.275c0,2.933,15.383,5.316,34.337,5.316c18.954,0,34.337-2.384,34.337-5.316
						c0-0.598-1.422-1.825-2.253-2.534c-1.931,2.635-15.327,5.508-32.083,5.508C84.384,141.442,70.73,138.829,68.801,136.194z"/>
					
						<radialGradient id="path5186_1_" cx="1129.702" cy="10284.1426" r="139.8352" gradientTransform="matrix(0.3418 0 0 0.0554 -284.987 -433.3472)" gradientUnits="userSpaceOnUse">
						<stop  offset="0" style="stop-color:#DEDBC7"/>
						<stop  offset="1" style="stop-color:#F4F1E3"/>
					</radialGradient>
					
						<path id="path5186" sodipodi:cx="266.52026" sodipodi:cy="440.30438" sodipodi:ry="22.688124" sodipodi:type="arc" sodipodi:rx="139.77971" fill="url(#path5186_1_)" d="
						M133.894,136.938c0,2.935-14.662,5.315-32.748,5.315c-18.087,0-32.748-2.38-32.748-5.315c0-2.937,14.662-5.315,32.748-5.315
						C119.232,131.622,133.894,134.002,133.894,136.938z"/>
				</g>
				
					<radialGradient id="path5272_1_" cx="1627.4033" cy="20582.0469" r="177.362" gradientTransform="matrix(0.3204 0 0 0.035 -371.9918 -487.4058)" gradientUnits="userSpaceOnUse">
					<stop  offset="0" style="stop-color:#000000"/>
					<stop  offset="1" style="stop-color:#000000;stop-opacity:0"/>
				</radialGradient>
				
					<path id="path5272" sodipodi:cx="274.75818" sodipodi:cy="438.67413" sodipodi:ry="23.603386" sodipodi:type="arc" sodipodi:rx="177.3942" opacity="0.1922" fill="url(#path5272_1_)" enable-background="new    " d="
					M213.493,231.895c0,3.852-28.654,6.976-64,6.976c-35.346,0-64-3.123-64-6.976c0-3.853,28.654-6.976,64-6.976
					C184.838,224.919,213.493,228.042,213.493,231.895z"/>
				<g id="g5188" transform="matrix(1.2815 0 0 1.2815 26.824 49.03)">
					<path id="path5190" sodipodi:nodetypes="ccccccccc" fill="#B4B190" d="M86.77,140.188h17.908c0.254,0,0.454,0.202,0.454,0.455
						v2.393c0,0.251-0.201,0.451-0.454,0.451c-5.969,1.083-11.939,0.87-17.908,0c-0.251,0-0.452-0.201-0.452-0.451v-2.393
						C86.317,140.39,86.519,140.188,86.77,140.188z"/>
					
						<linearGradient id="path5192_1_" gradientUnits="userSpaceOnUse" x1="769.0913" y1="1804.2654" x2="769.0913" y2="1898.678" gradientTransform="matrix(0.3418 0 0 0.3418 -167.1505 -496.0007)">
						<stop  offset="0" style="stop-color:#D4CFB4"/>
						<stop  offset="0.5" style="stop-color:#D8D3BE"/>
						<stop  offset="1" style="stop-color:#FAF8EF"/>
					</linearGradient>
					<path id="path5192" fill="url(#path5192_1_)" d="M86.317,120.698v22.119h18.816v-22.119h-6.046v2.08
						c0,0.743-0.602,1.338-1.347,1.338h-4.035c-0.745,0-1.34-0.595-1.34-1.338v-2.08H86.317z"/>
				</g>
			</g>
			<g id="g5691">
				
					<radialGradient id="rect5196_1_" cx="1444.6202" cy="2192.7671" r="182.3064" gradientTransform="matrix(0.3588 0 0 0.3211 -368.8337 -582.3708)" gradientUnits="userSpaceOnUse">
					<stop  offset="0" style="stop-color:#FFFFFF"/>
					<stop  offset="1" style="stop-color:#EFEDE5"/>
				</radialGradient>
				<path id="rect5196" fill="url(#rect5196_1_)" d="M96.704,118.028h105.579c1.19,0,2.153,0.964,2.153,2.153v83.661
					c0,1.191-0.965,2.153-2.153,2.153H96.704c-1.189,0-2.153-0.964-2.153-2.153v-83.661
					C94.551,118.992,95.515,118.028,96.704,118.028z"/>
				
					<linearGradient id="rect5198_1_" gradientUnits="userSpaceOnUse" x1="2599.6284" y1="3310.4751" x2="2599.6284" y2="3801.844" gradientTransform="matrix(0.2081 0 0 0.2081 -391.4835 -606.7395)">
					<stop  offset="0" style="stop-color:#9DDBFF"/>
					<stop  offset="1" style="stop-color:#1463AF"/>
				</linearGradient>
				<rect id="rect5198" x="101.156" y="124.633" fill="url(#rect5198_1_)" width="96.674" height="72.656"/>
				
					<linearGradient id="path5200_1_" gradientUnits="userSpaceOnUse" x1="1932.8838" y1="2398.1099" x2="1932.8838" y2="2649.9919" gradientTransform="matrix(0.2667 0 0 0.2931 -366.0417 -619.3428)">
					<stop  offset="0" style="stop-color:#FFFFFF"/>
					<stop  offset="1" style="stop-color:#FFFFFF;stop-opacity:0"/>
				</linearGradient>
				<path id="path5200" fill="url(#path5200_1_)" d="M101.158,124.635v39.411h96.674v-39.411H101.158z"/>
				<path id="path5202" sodipodi:nodetypes="ccccc" fill="#DEDBC7" d="M99.279,122.831h100.292l-1.742,1.801h-96.674L99.279,122.831
					L99.279,122.831z"/>
				
					<linearGradient id="path5204_1_" gradientUnits="userSpaceOnUse" x1="1753.8972" y1="2944.3765" x2="1753.8972" y2="2734.6116" gradientTransform="matrix(0.2667 0 0 0.2667 -367.5431 -593.173)">
					<stop  offset="0" style="stop-color:#DEDBC7"/>
					<stop  offset="1" style="stop-color:#FFFFFF"/>
				</linearGradient>
				<path id="path5204" sodipodi:nodetypes="ccccc" fill="url(#path5204_1_)" d="M99.354,199.063v-76.157l1.802,1.675v72.648
					L99.354,199.063z"/>
				<path id="path5206" sodipodi:nodetypes="ccccc" fill="#FCFCF6" d="M199.676,199.114H99.279l1.792-1.799h96.782L199.676,199.114z
					"/>
				
					<linearGradient id="path5208_1_" gradientUnits="userSpaceOnUse" x1="-2088.9695" y1="2944.3784" x2="-2088.9695" y2="2734.6118" gradientTransform="matrix(-0.2667 0 0 0.2667 -358.4458 -593.0435)">
					<stop  offset="0" style="stop-color:#DEDBC7"/>
					<stop  offset="1" style="stop-color:#FFFFFF"/>
				</linearGradient>
				<path id="path5208" sodipodi:nodetypes="ccccc" fill="url(#path5208_1_)" d="M199.622,199.09v-76.264l-1.801,1.886v72.595
					L199.622,199.09z"/>
				<g id="g5210" transform="matrix(1.2815 0 0 1.2815 15.881 49.03)">
					<g id="g5212" transform="translate(-8.4839 -26.418)">
						
							<radialGradient id="path5214_1_" cx="253.9991" cy="677.8286" r="5.75" gradientTransform="matrix(1.5553 0 0 1.7034 -280.9678 -1007.0195)" gradientUnits="userSpaceOnUse">
							<stop  offset="0" style="stop-color:#FFFFFF"/>
							<stop  offset="1" style="stop-color:#E0DBC4"/>
						</radialGradient>
						
							<path id="path5214" sodipodi:cx="288.25" sodipodi:cy="387.61218" sodipodi:ry="5.75" sodipodi:type="arc" sodipodi:rx="5.75" fill="url(#path5214_1_)" d="
							M115.107,146.181c0,1.302-1.056,2.356-2.359,2.356c-1.302,0-2.357-1.054-2.357-2.356c0-1.303,1.056-2.359,2.357-2.359
							C114.051,143.824,115.107,144.879,115.107,146.181z"/>
						
							<path id="path5216" sodipodi:cx="288.25" sodipodi:cy="387.61218" sodipodi:ry="5.75" sodipodi:type="arc" sodipodi:rx="5.75" fill="#B4B190" fill-opacity="0.4009" d="
							M114.769,146.181c0,1.116-0.906,2.021-2.021,2.021c-1.116,0-2.021-0.905-2.021-2.021c0-1.117,0.904-2.021,2.021-2.021
							C113.863,144.16,114.769,145.064,114.769,146.181z"/>
						
							<radialGradient id="path5218_1_" cx="411.7021" cy="877.2242" r="5.7518" gradientTransform="matrix(0.9611 0 0 1.0467 -283.1445 -773.8251)" gradientUnits="userSpaceOnUse">
							<stop  offset="0" style="stop-color:#FFFFFF"/>
							<stop  offset="1" style="stop-color:#E0DBC4"/>
						</radialGradient>
						
							<path id="path5218" sodipodi:cx="288.25" sodipodi:cy="387.61218" sodipodi:ry="5.75" sodipodi:type="arc" sodipodi:rx="5.75" fill="url(#path5218_1_)" d="
							M114.685,146.181c0,1.07-0.868,1.936-1.937,1.936c-1.069,0-1.937-0.867-1.937-1.936c0-1.069,0.867-1.937,1.937-1.937
							C113.818,144.244,114.685,145.112,114.685,146.181z"/>
						
							<radialGradient id="path5220_1_" cx="222.2169" cy="656.6725" r="5.7633" gradientTransform="matrix(1.7664 0 0 1.8056 -279.7603 -1041.1211)" gradientUnits="userSpaceOnUse">
							<stop  offset="0" style="stop-color:#DEDBC7"/>
							<stop  offset="1" style="stop-color:#FFFFFF"/>
						</radialGradient>
						
							<path id="path5220" sodipodi:cx="288.25" sodipodi:cy="387.61218" sodipodi:ry="5.75" sodipodi:type="arc" sodipodi:rx="5.75" fill="url(#path5220_1_)" d="
							M114.329,146.18c0,0.874-0.708,1.582-1.582,1.582c-0.873,0-1.582-0.708-1.582-1.582c0-0.873,0.708-1.581,1.582-1.581
							C113.62,144.599,114.329,145.307,114.329,146.18z"/>
						
							<radialGradient id="path5222_1_" cx="753.4954" cy="1126.6458" r="5.5094" gradientTransform="matrix(0.5169 0 0 0.6836 -276.7618 -624.4135)" gradientUnits="userSpaceOnUse">
							<stop  offset="0" style="stop-color:#31E8FF"/>
							<stop  offset="1" style="stop-color:#4283C1"/>
						</radialGradient>
						<path id="path5222" fill="url(#path5222_1_)" d="M112.749,144.757c-0.082,0-0.148,0.065-0.148,0.146v1.326
							c0,0.078,0.065,0.146,0.148,0.146c0.08,0,0.145-0.066,0.145-0.146v-1.326C112.894,144.821,112.828,144.757,112.749,144.757z
							 M112.461,145.054c-0.577,0.132-1.005,0.647-1.005,1.261c0,0.714,0.579,1.293,1.293,1.293c0.712,0,1.294-0.579,1.294-1.293
							c0-0.615-0.432-1.13-1.005-1.261v0.302c0.412,0.125,0.712,0.506,0.712,0.959c0,0.552-0.446,0.999-1,0.999
							c-0.553,0-1.001-0.447-1.001-0.999c0-0.453,0.3-0.834,0.712-0.959V145.054z"/>
					</g>
					<g id="g5224" transform="matrix(.80357 0 0 .80357 64.82 23.134)">
						
							<radialGradient id="path5226_1_" cx="555.8795" cy="1288.2306" r="5.7508" gradientTransform="matrix(0.6986 0 0 0.7653 -332.5117 -864.5693)" gradientUnits="userSpaceOnUse">
							<stop  offset="0" style="stop-color:#FFFFFF"/>
							<stop  offset="1" style="stop-color:#E0DBC4"/>
						</radialGradient>
						
							<path id="path5226" sodipodi:cx="288.25" sodipodi:cy="387.61218" sodipodi:ry="5.75" sodipodi:type="arc" sodipodi:rx="5.75" fill="url(#path5226_1_)" d="
							M56.558,120.251c0,0.906-0.736,1.639-1.64,1.639c-0.907,0-1.64-0.735-1.64-1.639c0-0.907,0.734-1.64,1.64-1.64
							C55.825,118.611,56.558,119.345,56.558,120.251z"/>
						
							<path id="path5228" sodipodi:cx="288.25" sodipodi:cy="387.61218" sodipodi:ry="5.75" sodipodi:type="arc" sodipodi:rx="5.75" fill="#A6A48B" fill-opacity="0.4009" d="
							M56.324,120.252c0,0.777-0.629,1.406-1.405,1.406c-0.777,0-1.407-0.629-1.407-1.406s0.63-1.407,1.407-1.407
							C55.695,118.848,56.324,119.475,56.324,120.252z"/>
						
							<radialGradient id="path5230_1_" cx="994.2053" cy="1844.1937" r="5.7485" gradientTransform="matrix(0.4318 0 0 0.4701 -374.4746 -748.0525)" gradientUnits="userSpaceOnUse">
							<stop  offset="0" style="stop-color:#FFFFFF"/>
							<stop  offset="1" style="stop-color:#E0DBC4"/>
						</radialGradient>
						
							<path id="path5230" sodipodi:cx="288.25" sodipodi:cy="387.61218" sodipodi:ry="5.75" sodipodi:type="arc" sodipodi:rx="5.75" fill="url(#path5230_1_)" d="
							M56.263,120.25c0,0.745-0.602,1.346-1.346,1.346s-1.346-0.603-1.346-1.346c0-0.745,0.604-1.347,1.346-1.347
							C55.662,118.903,56.263,119.506,56.263,120.25z"/>
					</g>
					<g id="g5232" transform="matrix(.80357 0 0 .80357 84.82 23.134)">
						
							<radialGradient id="path5234_1_" cx="505.3452" cy="1288.2306" r="5.7542" gradientTransform="matrix(0.6986 0 0 0.7653 -316.2668 -864.5693)" gradientUnits="userSpaceOnUse">
							<stop  offset="0" style="stop-color:#FFFFFF"/>
							<stop  offset="1" style="stop-color:#E0DBC4"/>
						</radialGradient>
						
							<path id="path5234" sodipodi:cx="288.25" sodipodi:cy="387.61218" sodipodi:ry="5.75" sodipodi:type="arc" sodipodi:rx="5.75" fill="url(#path5234_1_)" d="
							M37.5,120.251c0,0.906-0.736,1.639-1.64,1.639c-0.906,0-1.64-0.735-1.64-1.639c0-0.907,0.735-1.64,1.64-1.64
							C36.766,118.611,37.5,119.345,37.5,120.251z"/>
						
							<path id="path5236" sodipodi:cx="288.25" sodipodi:cy="387.61218" sodipodi:ry="5.75" sodipodi:type="arc" sodipodi:rx="5.75" fill="#A6A48B" fill-opacity="0.4009" d="
							M37.267,120.252c0,0.777-0.63,1.406-1.406,1.406c-0.778,0-1.406-0.629-1.406-1.406s0.628-1.407,1.406-1.407
							C36.637,118.848,37.267,119.475,37.267,120.252z"/>
						
							<radialGradient id="path5238_1_" cx="943.6741" cy="1844.1937" r="5.7507" gradientTransform="matrix(0.4318 0 0 0.4701 -371.7134 -748.0525)" gradientUnits="userSpaceOnUse">
							<stop  offset="0" style="stop-color:#FFFFFF"/>
							<stop  offset="1" style="stop-color:#E0DBC4"/>
						</radialGradient>
						
							<path id="path5238" sodipodi:cx="288.25" sodipodi:cy="387.61218" sodipodi:ry="5.75" sodipodi:type="arc" sodipodi:rx="5.75" fill="url(#path5238_1_)" d="
							M37.206,120.25c0,0.745-0.604,1.346-1.346,1.346c-0.745,0-1.348-0.603-1.348-1.346c0-0.745,0.604-1.347,1.348-1.347
							C36.604,118.903,37.206,119.506,37.206,120.25z"/>
					</g>
					<g id="g5240" transform="matrix(.80357 0 0 .80357 104.82 23.134)">
						
							<radialGradient id="path5242_1_" cx="454.811" cy="1288.2306" r="5.7508" gradientTransform="matrix(0.6986 0 0 0.7653 -300.0215 -864.5693)" gradientUnits="userSpaceOnUse">
							<stop  offset="0" style="stop-color:#FFFFFF"/>
							<stop  offset="1" style="stop-color:#E0DBC4"/>
						</radialGradient>
						
							<path id="path5242" sodipodi:cx="288.25" sodipodi:cy="387.61218" sodipodi:ry="5.75" sodipodi:type="arc" sodipodi:rx="5.75" fill="url(#path5242_1_)" d="
							M18.441,120.251c0,0.906-0.734,1.639-1.639,1.639c-0.907,0-1.64-0.735-1.64-1.639c0-0.907,0.736-1.64,1.64-1.64
							C17.709,118.611,18.441,119.345,18.441,120.251z"/>
						
							<path id="path5244" sodipodi:cx="288.25" sodipodi:cy="387.61218" sodipodi:ry="5.75" sodipodi:type="arc" sodipodi:rx="5.75" fill="#A6A48B" fill-opacity="0.4009" d="
							M18.209,120.252c0,0.777-0.629,1.406-1.406,1.406s-1.407-0.629-1.407-1.406s0.63-1.407,1.407-1.407
							S18.209,119.475,18.209,120.252z"/>
						
							<radialGradient id="path5246_1_" cx="893.1376" cy="1844.1937" r="5.7485" gradientTransform="matrix(0.4318 0 0 0.4701 -368.9521 -748.0525)" gradientUnits="userSpaceOnUse">
							<stop  offset="0" style="stop-color:#FFFFFF"/>
							<stop  offset="1" style="stop-color:#E0DBC4"/>
						</radialGradient>
						
							<path id="path5246" sodipodi:cx="288.25" sodipodi:cy="387.61218" sodipodi:ry="5.75" sodipodi:type="arc" sodipodi:rx="5.75" fill="url(#path5246_1_)" d="
							M18.15,120.25c0,0.745-0.604,1.346-1.347,1.346s-1.346-0.603-1.346-1.346c0-0.745,0.603-1.347,1.346-1.347
							S18.15,119.506,18.15,120.25z"/>
					</g>
					<g id="g5248" transform="matrix(.80357 0 0 .80357 24.82 23.134)">
						
							<radialGradient id="path5250_1_" cx="656.9471" cy="1288.2306" r="5.7508" gradientTransform="matrix(0.6986 0 0 0.7653 -365.0024 -864.5693)" gradientUnits="userSpaceOnUse">
							<stop  offset="0" style="stop-color:#FFFFFF"/>
							<stop  offset="1" style="stop-color:#E0DBC4"/>
						</radialGradient>
						
							<path id="path5250" sodipodi:cx="288.25" sodipodi:cy="387.61218" sodipodi:ry="5.75" sodipodi:type="arc" sodipodi:rx="5.75" fill="url(#path5250_1_)" d="
							M94.674,120.251c0,0.906-0.734,1.639-1.64,1.639s-1.64-0.735-1.64-1.639c0-0.907,0.735-1.64,1.64-1.64
							C93.94,118.611,94.674,119.345,94.674,120.251z"/>
						
							<path id="path5252" sodipodi:cx="288.25" sodipodi:cy="387.61218" sodipodi:ry="5.75" sodipodi:type="arc" sodipodi:rx="5.75" fill="#A6A48B" fill-opacity="0.4009" d="
							M94.44,120.252c0,0.777-0.629,1.406-1.406,1.406c-0.776,0-1.406-0.629-1.406-1.406s0.629-1.407,1.406-1.407
							C93.811,118.848,94.44,119.475,94.44,120.252z"/>
						
							<radialGradient id="path5254_1_" cx="1095.2738" cy="1844.1937" r="5.7485" gradientTransform="matrix(0.4318 0 0 0.4701 -379.9971 -748.0525)" gradientUnits="userSpaceOnUse">
							<stop  offset="0" style="stop-color:#FFFFFF"/>
							<stop  offset="1" style="stop-color:#E0DBC4"/>
						</radialGradient>
						
							<path id="path5254" sodipodi:cx="288.25" sodipodi:cy="387.61218" sodipodi:ry="5.75" sodipodi:type="arc" sodipodi:rx="5.75" fill="url(#path5254_1_)" d="
							M94.38,120.25c0,0.745-0.603,1.346-1.347,1.346c-0.744,0-1.347-0.603-1.347-1.346c0-0.745,0.603-1.347,1.347-1.347
							C93.777,118.903,94.38,119.506,94.38,120.25z"/>
					</g>
					<g id="g5256" transform="matrix(.80357 0 0 .80357 4.8199 23.134)">
						
							<radialGradient id="path5258_1_" cx="707.4786" cy="1288.2306" r="5.7547" gradientTransform="matrix(0.6986 0 0 0.7653 -381.2471 -864.5693)" gradientUnits="userSpaceOnUse">
							<stop  offset="0" style="stop-color:#FFFFFF"/>
							<stop  offset="1" style="stop-color:#E0DBC4"/>
						</radialGradient>
						
							<path id="path5258" sodipodi:cx="288.25" sodipodi:cy="387.61218" sodipodi:ry="5.75" sodipodi:type="arc" sodipodi:rx="5.75" fill="url(#path5258_1_)" d="
							M113.732,120.251c0,0.906-0.735,1.639-1.64,1.639c-0.905,0-1.64-0.735-1.64-1.639c0-0.907,0.735-1.64,1.64-1.64
							C112.997,118.611,113.732,119.345,113.732,120.251z"/>
						
							<path id="path5260" sodipodi:cx="288.25" sodipodi:cy="387.61218" sodipodi:ry="5.75" sodipodi:type="arc" sodipodi:rx="5.75" fill="#A6A48B" fill-opacity="0.4009" d="
							M113.498,120.252c0,0.777-0.629,1.406-1.406,1.406c-0.776,0-1.406-0.629-1.406-1.406s0.629-1.407,1.406-1.407
							C112.869,118.848,113.498,119.475,113.498,120.252z"/>
						
							<radialGradient id="path5262_1_" cx="1145.8064" cy="1844.1937" r="5.7485" gradientTransform="matrix(0.4318 0 0 0.4701 -382.7592 -748.0525)" gradientUnits="userSpaceOnUse">
							<stop  offset="0" style="stop-color:#FFFFFF"/>
							<stop  offset="1" style="stop-color:#E0DBC4"/>
						</radialGradient>
						
							<path id="path5262" sodipodi:cx="288.25" sodipodi:cy="387.61218" sodipodi:ry="5.75" sodipodi:type="arc" sodipodi:rx="5.75" fill="url(#path5262_1_)" d="
							M113.438,120.25c0,0.745-0.603,1.346-1.347,1.346c-0.744,0-1.347-0.603-1.347-1.346c0-0.745,0.603-1.347,1.347-1.347
							C112.835,118.903,113.438,119.506,113.438,120.25z"/>
					</g>
					<g id="g5264" transform="matrix(.80357 0 0 .80357 -15.18 23.134)">
						
							<radialGradient id="path5266_1_" cx="758.0148" cy="1288.2306" r="5.7508" gradientTransform="matrix(0.6986 0 0 0.7653 -397.492 -864.5693)" gradientUnits="userSpaceOnUse">
							<stop  offset="0" style="stop-color:#FFFFFF"/>
							<stop  offset="1" style="stop-color:#E0DBC4"/>
						</radialGradient>
						
							<path id="path5266" sodipodi:cx="288.25" sodipodi:cy="387.61218" sodipodi:ry="5.75" sodipodi:type="arc" sodipodi:rx="5.75" fill="url(#path5266_1_)" d="
							M132.789,120.251c0,0.906-0.735,1.639-1.64,1.639c-0.906,0-1.64-0.735-1.64-1.639c0-0.907,0.734-1.64,1.64-1.64
							C132.055,118.611,132.789,119.345,132.789,120.251z"/>
						
							<path id="path5268" sodipodi:cx="288.25" sodipodi:cy="387.61218" sodipodi:ry="5.75" sodipodi:type="arc" sodipodi:rx="5.75" fill="#A6A48B" fill-opacity="0.4009" d="
							M132.555,120.252c0,0.777-0.629,1.406-1.406,1.406c-0.777,0-1.406-0.629-1.406-1.406s0.629-1.407,1.406-1.407
							C131.926,118.846,132.555,119.475,132.555,120.252z"/>
						
							<radialGradient id="path5270_1_" cx="1196.3406" cy="1844.1937" r="5.748" gradientTransform="matrix(0.4318 0 0 0.4701 -385.5215 -748.0525)" gradientUnits="userSpaceOnUse">
							<stop  offset="0" style="stop-color:#FFFFFF"/>
							<stop  offset="1" style="stop-color:#E0DBC4"/>
						</radialGradient>
						
							<path id="path5270" sodipodi:cx="288.25" sodipodi:cy="387.61218" sodipodi:ry="5.75" sodipodi:type="arc" sodipodi:rx="5.75" fill="url(#path5270_1_)" d="
							M132.496,120.25c0,0.745-0.603,1.346-1.347,1.346c-0.744,0-1.347-0.603-1.347-1.346c0-0.745,0.603-1.347,1.347-1.347
							C131.892,118.903,132.496,119.506,132.496,120.25z"/>
					</g>
				</g>
			</g>
		</g>
	</g>
</g>
<g id="Layer_2" opacity="0.5">
	<g>
		<g>
			<defs>
				<rect id="SVGID_1_" x="18.442" y="12.288" width="91.113" height="68.478"/>
			</defs>
			<clipPath id="SVGID_2_">
				<use xlink:href="#SVGID_1_"  overflow="visible"/>
			</clipPath>
			<g id="layer3" clip-path="url(#SVGID_2_)">
				
					<radialGradient id="path5437_1_" cx="-102.998" cy="520.4619" r="29.0925" gradientTransform="matrix(0.9319 -0.4345 0.3933 0.8434 -15.4395 -440.1017)" gradientUnits="userSpaceOnUse">
					<stop  offset="0" style="stop-color:#295A85"/>
					<stop  offset="1" style="stop-color:#1C3850"/>
				</radialGradient>
				
					<path id="path5437" fill="url(#path5437_1_)" stroke="#000000" stroke-width="0.2008" stroke-linecap="round" stroke-linejoin="round" d="
					M119.373,18.948c11.602,24.474,1.316,53.651-22.971,65.167C72.115,95.633,43.02,85.127,31.419,60.649
					c-0.089-0.188-0.177-0.376-0.263-0.565C19.554,35.608,29.838,6.431,54.127-5.084c24.288-11.515,53.381-1.009,64.982,23.467
					C119.199,18.57,119.287,18.759,119.373,18.948z"/>
				<path id="path6326" fill="#DCDBDD" stroke="#000000" stroke-width="0.5" d="M59.467,85.695c1.42-0.734,2.898,0.369,4.194,0.891
					c1.135,0.168,2.243,0.463,3.346,0.635c1.584-0.375,3.22-0.014,4.828-0.168c0.933-0.272,1.461,1.262,2.041,0.127
					c1.146,0.705,1.851-0.83,3.144-0.283c1.395,0.101,2.807,0.302,4.186-0.012c3.441-0.268,6.939-0.479,10.227-1.623
					c1.957-0.592,3.902-1.229,5.836-1.889c-5.83,3.393-12.578,5.086-19.297,5.318c-5.998,0.129-12.047-0.703-17.729-2.642
					C59.987,85.934,59.688,85.874,59.467,85.695L59.467,85.695z"/>
				<path id="path7213" fill="#475422" stroke="#000000" stroke-width="0.5" d="M106.879,72.16c-0.275,0.125-0.592,0.123-0.867,0.24
					c-0.209,0.139-0.301,0.393-0.492,0.557c-0.17,0.146-0.334,0.299-0.44,0.502c-0.152,0.193-0.367,0.328-0.547,0.496
					c-0.312,0.258-0.654,0.482-0.927,0.789c-0.28,0.258-0.6,0.469-0.901,0.699c-0.216,0.221-0.392,0.473-0.58,0.713
					c0.08,0.123,0.353-0.07,0.489-0.107c0.408-0.199,0.832-0.365,1.229-0.592c0.304-0.195,0.572-0.436,0.839-0.676
					c0.241-0.262,0.379-0.615,0.682-0.818c0.316-0.215,0.568-0.506,0.801-0.803c0.217-0.236,0.623-0.307,0.697-0.66
					C106.885,72.391,106.885,72.273,106.879,72.16L106.879,72.16z"/>
				<path id="path8102" fill="#475422" stroke="#000000" stroke-width="0.5" d="M109.945,69.322
					c0.039,0.195-0.248,0.188-0.379,0.229c-0.295,0.037-0.535,0.223-0.771,0.387c-0.135,0.119-0.309-0.024-0.455-0.061
					c-0.186-0.062-0.363-0.164-0.561-0.18c-0.178,0.043-0.379-0.08-0.537,0.049c-0.152,0.145,0.117,0.283,0.229,0.352
					c0.125,0.076,0.295,0.098,0.367,0.242c0.074,0.135,0.127,0.295,0.131,0.451c-0.059,0.152-0.244,0.184-0.367,0.27
					c-0.168,0.088-0.188,0.297-0.205,0.465c0.019,0.103-0.043,0.353,0.095,0.334c0.256-0.092,0.506-0.205,0.741-0.336
					c0.25-0.166,0.388-0.442,0.566-0.676c0.188-0.293,0.34-0.629,0.639-0.832c0.166-0.127,0.34-0.244,0.521-0.354
					C110.066,69.572,109.986,69.422,109.945,69.322L109.945,69.322z"/>
				<path id="path8104" fill="#475422" stroke="#000000" stroke-width="0.5" d="M89.172,78.518c0.254-0.147,0.547-0.235,0.777-0.432
					c0.164-0.104,0.35-0.195,0.549-0.191c0.156,0.039,0.186,0.232,0.203,0.367c-0.031,0.168-0.201,0.252-0.336,0.33
					c-0.211,0.096-0.361,0.279-0.518,0.441c-0.17,0.189-0.42,0.268-0.656,0.336c-0.107,0.035-0.219,0.049-0.328,0.006
					c-0.15-0.051-0.297-0.111-0.443-0.176c-0.176-0.102-0.307-0.264-0.41-0.434c-0.031-0.142,0.131-0.211,0.234-0.259
					c0.172-0.086,0.377-0.176,0.564-0.086C88.928,78.463,89.047,78.494,89.172,78.518L89.172,78.518z"/>
				<path id="path8106" fill="#475422" stroke="#000000" stroke-width="0.5" d="M94.701,72.287
					c-0.234,0.908-0.846,1.906-1.697,2.506c-0.596,0.795-0.869,2.197-2.125,2.115c-1.025-0.055-1.82,1.043-2.822,0.621
					c-0.971,1.082-2.399,0.24-3.568,0.25c-0.817-0.945-1.997-1.449-3.01-0.498c-0.844,0.758-0.676-1.01-1.647-0.582
					c-0.888-0.871-2.146,0.256-3.269-0.076c-1.166,0.109-2.338,0.34-3.494,0.541c-1.104,0.607-2.237,0.656-3.438,0.496
					c-1.197,0.365-2.316,0.445-3.533,0.291c-1.24,0.115-0.094-1.383-1.279-1.514c-0.941-0.715-1.096-1.996-1.819-2.879
					c0.321-0.937,1.849-1.009,2.757-1.035c1.166-0.271,2.385-0.478,3.475-0.988c0.244-0.277,0.529-1.494,1.115-0.629
					c1.119-0.383,1.885-1.766,3.283-1.469c0.719,0.795,1.887,0.674,2.211-0.418c0.477-0.558,1.73-0.422,1.949-0.894
					c0.203-0.726,1.75,0.633,2.465-0.051c1.102-0.441,0.408,0.521,0.248,1.01c0.645,0.983,2.062,0.621,3.053,0.938
					c1.199,0.307,1.943-0.781,1.848-1.84c-0.026-0.873,0.925-2.517,1.326-0.869c0.188,0.858,0.978,0.83,1.459,0.295
					c0.568,0.858,0.713,2.42,2.121,2.061c0.898,0.285,1.529,0.9,2.418,0.738C93.002,71.262,94.678,70.996,94.701,72.287
					L94.701,72.287z"/>
				<path id="path8108" fill="#64633B" stroke="#000000" stroke-width="0.5" d="M92.369,65.084c-0.578-0.264-1.17-0.5-1.803-0.58
					c-0.479-0.012-0.906-0.397-0.412-0.754c-0.285-0.656-1.041-0.061-1.539-0.266c-0.631-0.094-1.197-0.387-1.82-0.477
					c-0.863,0-1.729,0.191-2.592,0.037c-0.664,0.02-1.314-0.119-1.963-0.166c-0.619,0.156-1.219,0.439-1.732,0.816
					c-0.494,0.523-1.195,0.484-1.631-0.08c-0.537-0.371-1.297-0.408-1.889-0.18c-0.041,0.498,0.594,0.99,1.01,1.248
					c0.656,0.047,1.314-0.14,1.975-0.171c0.851,0.238,1.771,0.103,2.596,0.443c0.476,0.498-0.312,1.021-0.426,1.19
					c0.635,0.363,1.209-0.401,1.82-0.459c0.529,0.183,1.029,0.537,1.621,0.394c0.607-0.047,1.061-0.492,1.367-0.97
					c0.459-0.592,1.217-0.837,1.865-0.393c0.709,0.211,1.426,0.402,2.117,0.668C91.451,65.574,91.893,65.219,92.369,65.084
					L92.369,65.084z"/>
				<path id="path8110" fill="#64633B" stroke="#000000" stroke-width="0.5" d="M68.32,64.013c0.125-0.059,0.393,0.322,0.479,0.508
					c0.058,0.121,0.453,0.131,0.55,0.131c0.143,0.006,0.241,0.312,0.321,0.483c0.146,0.312,0.041,0.421-0.271,0.566
					c-0.281,0.131-0.324,0.271-0.537,0.104c-0.166-0.132-0.273-0.367-0.42-0.484c-0.187-0.146-0.322-0.285-0.506-0.353
					c-0.109-0.038-0.375-0.348-0.424-0.387c-0.214-0.168-0.341,0.106-0.246,0.31c0.106,0.231-0.004,0.336-0.172,0.471
					c-0.113,0.092-0.188,0.43-0.339,0.109c-0.106-0.232-0.213-0.382-0.358-0.562c-0.125-0.156-0.195-0.42-0.281-0.602
					c-0.088-0.191-0.01-0.334-0.004-0.533c0.006-0.225,0.113-0.4,0.213-0.588c0.092-0.172,0.373-0.396,0.488-0.52
					c0.205-0.219,0.604-0.123,0.772-0.117c0.313,0.008,0.668,0.018,0.892,0.023c0.323,0.012,0.471-0.027,0.709,0.059
					c0.196,0.072,0.371,0.168,0.61,0.057l0.681-0.318c0.34-0.156,0.25-0.092,0.373,0.17c0.071,0.156-0.154,0.43-0.252,0.506
					c-0.265,0.217-0.627,0.342-0.943,0.488c-0.23,0.107-0.455,0.232-0.699,0.277C68.701,63.863,68.58,63.892,68.32,64.013
					L68.32,64.013z"/>
				<path id="path8112" fill="#64633B" stroke="#000000" stroke-width="0.5" d="M62.646,60.417c0.27-0.448,0.878-0.486,1.219-0.867
					c0.512-0.253,0.588,0.377,0.857,0.608c0.353,0.194,0.785-0.023,1.137,0.175c0.16,0.51-0.569,0.573-0.916,0.632
					c-0.445,0.046-0.616,0.716-0.176,0.896c0.334,0.199,0.666,0.42,0.916,0.715c0.285,0.418-0.205,0.697-0.576,0.639
					c-0.397,0.004-0.861-0.145-1.203,0.133c-0.299,0.379,0.074,0.93-0.273,1.298c-0.24,0.484-0.824,0.355-1.121,0.021
					c-0.424-0.237-0.91-0.123-1.365-0.129c-0.406-0.004-0.816-0.033-1.207-0.151c-0.518-0.043-1.014-0.412-1.119-0.934
					c-0.21-0.443-0.757-0.459-1.168-0.572c-0.431-0.195-0.229-0.771,0.044-1.02c0.253-0.445,0.692-0.092,0.921,0.137
					c0.436,0.029,0.85-0.236,1.156-0.52c0.375-0.258,0.907-0.043,1.257-0.365c0.404-0.227,0.666-0.731,1.169-0.752
					C62.349,60.37,62.495,60.409,62.646,60.417L62.646,60.417z"/>
				<path id="path8114" fill="#64633B" stroke="#000000" stroke-width="0.5" d="M73.096,67.146c-0.035,0.024-0.186,0.09-0.27,0.129
					c-0.266,0.119-0.549,0.217-0.844,0.205c-0.299,0.014-0.605,0.067-0.863,0.229c-0.225,0.129-0.471,0.283-0.738,0.219
					c-0.105-0.025-0.248-0.078-0.254-0.203c0.043-0.131,0.193-0.186,0.301-0.256c0.445-0.223,0.91-0.404,1.344-0.652
					c0.146-0.061,0.293-0.186,0.459-0.131c0.263,0.104,0.431,0.375,0.72,0.42C73,67.119,73.049,67.129,73.096,67.146L73.096,67.146z
					"/>
				<path id="path8118" fill="#64633B" stroke="#000000" stroke-width="0.5" d="M62.492,66.779c-0.26-0.303-0.683-0.262-1.027-0.185
					c-0.358-0.092-0.528-0.491-0.888-0.604c-0.262-0.225-0.613-0.209-0.926-0.125c-0.418,0.096-0.869,0.207-1.285,0.043
					c-0.287-0.076-0.572-0.164-0.833-0.309c-0.505-0.17-1.044-0.209-1.542-0.398c-0.297-0.162-0.591,0.174-0.321,0.418
					c0.211,0.271,0.566,0.178,0.854,0.256c0.431,0.139,0.766,0.535,1.243,0.529c0.297-0.049,0.577-0.312,0.895-0.182
					c0.563,0.024,1.054,0.321,1.534,0.586c0.312,0.145,0.679,0.153,1,0.028c0.366-0.088,0.724,0.287,1.079,0.072
					C62.35,66.873,62.422,66.828,62.492,66.779L62.492,66.779z"/>
				<path id="path8120" fill="#64633B" stroke="#000000" stroke-width="0.5" d="M55.268,64.881c-0.628-0.191-1.357-0.189-1.842-0.7
					c-0.361-0.342-0.666-0.75-1.119-0.98c-0.414-0.184-0.661-0.549-0.943-0.879c-0.256-0.262-0.529-0.549-0.904-0.605
					c-0.529-0.23-0.627-0.86-0.83-1.334c-0.248-0.495-0.803-0.678-1.166-1.062c-0.3-0.253-0.566-0.546-0.846-0.816
					c-0.312-0.125-0.536-0.935-0.017-0.592c0.552,0.211,1.097,0.48,1.495,0.93c0.396,0.219,0.712,0.529,1.064,0.802
					c0.484,0.293,0.854,0.737,1.356,0.996c0.537,0.248,0.967,0.662,1.47,0.966c0.543,0.268,0.627,0.957,1.129,1.256
					c0.406,0.332,1.066,0.057,1.387,0.514c0.267,0.393-0.18,0.844-0.082,1.271C55.383,64.732,55.326,64.807,55.268,64.881
					L55.268,64.881z"/>
				<path id="path8122" fill="#64633B" stroke="#000000" stroke-width="0.5" d="M63.955,66.781c0.241,0.17,0.561-0.115,0.792,0.09
					c0.16,0.143,0.412,0.082,0.612,0.078c0.254-0.035,0.507,0.021,0.759,0.059c0.315,0.078,0.674,0.234,0.983,0.047
					c0.287-0.143,0.621-0.184,0.933-0.096c0.266,0.066,0.559,0.148,0.823,0.023c0.254-0.058,0.56-0.109,0.787,0.053
					c0.238,0.248-0.25,0.365-0.422,0.455c-0.307,0.113-0.647,0.117-0.961,0.023c-0.332-0.029-0.66-0.199-0.996-0.089
					c-0.346,0.084-0.707,0.185-1.062,0.097c-0.406-0.027-0.767-0.33-1.188-0.244c-0.371,0.031-0.731-0.092-1.092-0.156
					C63.764,67.053,63.852,66.855,63.955,66.781L63.955,66.781z"/>
				<path id="path8124" fill="#64633B" stroke="#000000" stroke-width="0.5" d="M71.346,58.163c-0.123,0.148,0.062,0.292,0.15,0.4
					c0.176,0.258,0.293,0.553,0.42,0.836c-0.076,0.186-0.309,0.174-0.473,0.159c-0.139,0.013-0.406-0.167-0.447,0.044
					c0.055,0.157,0.188,0.289,0.189,0.466c0.006,0.227-0.267,0.356-0.463,0.289c-0.197-0.052-0.367-0.178-0.496-0.332
					c-0.127-0.204-0.365,0.026-0.502-0.13c-0.105-0.134-0.062-0.325,0.034-0.45c0.113-0.125,0.015-0.245-0.133-0.181
					c-0.34,0.008-0.666-0.156-1.006-0.088c-0.187,0.023-0.394,0.055-0.562-0.051c-0.069-0.226,0.244-0.248,0.375-0.341
					c0.209-0.136,0.476-0.066,0.685,0.032c0.432,0.146,0.889,0.033,1.327-0.007c0.343-0.064,0.595-0.332,0.816-0.581
					C71.289,58.205,71.316,58.183,71.346,58.163L71.346,58.163z"/>
				<path id="path8126" fill="#64633B" stroke="#000000" stroke-width="0.5" d="M67.633,53.653c0.205-0.102,0.393,0.115,0.453,0.292
					c0.098,0.278-0.139,0.564-0.406,0.624c-0.227,0.057-0.387,0.272-0.336,0.505c0.027,0.227-0.039,0.457,0.047,0.672
					c0.127,0.235-0.219,0.398-0.074,0.621c0.07,0.156,0.273,0.274,0.201,0.467c-0.043,0.204-0.295,0.226-0.412,0.078
					c-0.146-0.14-0.229-0.33-0.358-0.483c-0.101-0.185,0.008-0.415-0.113-0.592c-0.18-0.114-0.442-0.058-0.565-0.269
					c-0.146-0.165-0.267-0.433-0.111-0.63c0.107-0.169,0.352-0.178,0.422-0.374c0.086-0.171,0.062-0.365,0.057-0.546
					c0.051-0.428,0.599-0.713,0.972-0.485C67.481,53.571,67.555,53.615,67.633,53.653L67.633,53.653z"/>
				<path id="path8128" fill="#64633B" stroke="#000000" stroke-width="0.5" d="M70.027,56.489c0.209,0.062,0.369,0.22,0.531,0.354
					c0.114,0.104,0.194,0.284,0.1,0.427c-0.051,0.123-0.127,0.273-0.275,0.287c-0.131,0.059-0.27-0.063-0.395-0.002
					c-0.146,0.141,0.08,0.347-0.039,0.496c-0.119,0.111-0.301,0.086-0.449,0.068c-0.141-0.015-0.227-0.148-0.357-0.182
					c-0.203-0.021-0.365,0.138-0.549,0.193c-0.152,0.057-0.363,0.057-0.461-0.094c-0.096-0.151,0.082-0.357-0.059-0.489
					c-0.086-0.082-0.242-0.14-0.227-0.283c0.002-0.174,0.207-0.207,0.34-0.177c0.158,0.016,0.285,0.113,0.416,0.191
					c0.198,0.076,0.408-0.016,0.608-0.039c0.16-0.034,0.33-0.067,0.465-0.162c0.119-0.154-0.016-0.38,0.123-0.525
					C69.865,56.502,69.951,56.496,70.027,56.489L70.027,56.489z"/>
				<path id="path8130" fill="#64633B" stroke="#000000" stroke-width="0.5" d="M73.637,61.822c0.031-0.018,0.055-0.059,0-0.029
					c-0.248,0.113-0.484,0.252-0.729,0.371c-0.046,0.059-0.023,0.139-0.019,0.205c0.025,0.137,0.062,0.271,0.115,0.396
					c0.059,0.064,0.16,0.057,0.242,0.053c0.129-0.01,0.256-0.049,0.373-0.107c0.182-0.082,0.395-0.131,0.527-0.293
					c0.01-0.066-0.078-0.123-0.113-0.18C73.906,62.095,73.773,61.957,73.637,61.822L73.637,61.822z"/>
				<path id="path8132" fill="#475422" stroke="#000000" stroke-width="0.5" d="M71.844,64.464c0.15-0.184,0.121,0.463,0.221,0.681
					c0.072,0.153,0.492-0.035,0.636-0.103c0.297-0.14,0.112-0.306-0.025-0.476C72.566,64.437,72.063,64.488,71.844,64.464
					L71.844,64.464z"/>
				<path id="path8134" fill="#64633B" stroke="#000000" stroke-width="0.5" d="M73.393,64.23c0.133,0.168,0.279,0.372,0.51,0.401
					c0.464,0.094,0.938,0.062,1.404,0.084c0.226,0.004,0.441-0.053,0.656-0.105c0.121-0.026,0.383-0.049,0.293-0.23
					c-0.113-0.174-0.348-0.186-0.531-0.148c-0.25,0.049-0.51,0.139-0.766,0.066c-0.244-0.07-0.504-0.068-0.746-0.15
					c-0.223-0.066-0.475-0.1-0.686,0.021C73.482,64.187,73.438,64.208,73.393,64.23L73.393,64.23z"/>
				<path id="path8136" fill="#475422" stroke="#000000" stroke-width="0.5" d="M66.865,49.917c-0.191,0.075-0.338,0.225-0.506,0.34
					c-0.152,0.105-0.281,0.253-0.326,0.436c-0.055,0.19-0.061,0.39-0.049,0.585c0.021,0.142,0.07,0.282,0.158,0.396
					c0.121,0.109,0.297,0.044,0.426-0.011c0.193-0.077,0.385-0.185,0.494-0.366c0.133-0.166,0.235-0.354,0.301-0.557
					c0.086-0.236,0.156-0.487,0.322-0.684c0.051-0.154-0.179-0.141-0.277-0.146c-0.174,0.003-0.35,0.037-0.525,0.008L66.865,49.917
					L66.865,49.917z"/>
				<path id="path8138" fill="#5A5F38" stroke="#000000" stroke-width="0.5" d="M73.684,44.885
					c-0.201,0.059-0.379,0.194-0.498,0.366c0.029,0.14,0.215,0.096,0.318,0.131c0.119,0.03,0.289-0.027,0.354,0.107
					c0.045,0.111,0.039,0.235,0.031,0.352c-0.018,0.126-0.096,0.248-0.063,0.376c0.053,0.12,0.202,0.092,0.305,0.066
					c0.274-0.064,0.509-0.235,0.763-0.352c0.108-0.083,0.116-0.234,0.145-0.358c0.033-0.176,0.021-0.364-0.07-0.521
					c-0.053-0.118-0.145-0.234-0.279-0.249c-0.149-0.027-0.307-0.018-0.459-0.013C74.043,44.809,73.867,44.866,73.684,44.885
					L73.684,44.885z"/>
				<path id="path8140" fill="#5D633A" stroke="#000000" stroke-width="0.5" d="M81.348,39.363c-0.397,0.04-0.787,0.518-0.518,0.89
					c0.248,0.305-0.092,0.66-0.297,0.893c-0.203,0.259-0.258,0.617-0.518,0.839c-0.218,0.208-0.492,0.385-0.795,0.416
					c-0.308-0.046-0.453-0.83-0.755-0.333c-0.123,0.34-0.065,0.736-0.309,1.033c-0.24,0.363-0.722,0.274-1.093,0.294
					c-0.532,0.161-1.123,0.062-1.629,0.327c-0.305,0.134-0.61,0.266-0.934,0.344c-0.365,0.163-0.156,0.747,0.23,0.472
					c0.412-0.15,0.858-0.153,1.268-0.301c0.367-0.149,0.729-0.377,1.141-0.356c0.332,0.157,0.883,0.229,0.887,0.697
					c0.408-0.035,0.812-0.415,0.646-0.842c0.035-0.481,0.559-0.432,0.746-0.094c0.348-0.009,0.613-0.33,0.963-0.398
					c0.326-0.099,0.604-0.265,0.557-0.641c0.164,0.076,0.437,0.433,0.664,0.126c0.197-0.319-0.219-0.735,0.179-1.032
					c0.313-0.257,0.146-0.587,0.129-0.897c0.144-0.249,0.519-0.431,0.254-0.774C81.967,39.733,81.647,39.536,81.348,39.363
					L81.348,39.363z"/>
				<path id="path8142" fill="#757245" stroke="#000000" stroke-width="0.5" d="M75.604,44.82c-0.08-0.042,0.025,0.099,0.045,0.124
					c0.086,0.104,0.177,0.217,0.306,0.266c0.073,0.022,0.144-0.039,0.198-0.08c0.101-0.089,0.146-0.231,0.269-0.296
					c0.179-0.104,0.388-0.131,0.57-0.223c0.065-0.042,0.149-0.101,0.155-0.188c-0.03-0.092-0.151-0.091-0.231-0.104
					c-0.162-0.012-0.328-0.01-0.488,0.015c-0.258,0.068-0.473,0.233-0.686,0.386C75.693,44.753,75.648,44.787,75.604,44.82
					L75.604,44.82z"/>
				<path id="path8144" fill="#6D7545" stroke="#000000" stroke-width="0.5" d="M81.992,36.67c-0.312,0.188-0.529,0.527-0.539,0.892
					c-0.031,0.224-0.188,0.417-0.395,0.497c-0.207,0.117-0.438,0.263-0.492,0.513c-0.119,0.199,0.061,0.568,0.303,0.376
					c0.342-0.175,0.545-0.537,0.885-0.71c0.279-0.092,0.547,0.082,0.791,0.194c0.188,0.068,0.404,0.028,0.564-0.087
					c0.065-0.187-0.246-0.424,0.027-0.556c0.19-0.121,0.42-0.169,0.61-0.289c0.198-0.103,0.392-0.225,0.551-0.382
					c-0.229-0.055-0.428,0.14-0.657,0.137c-0.257,0.034-0.42-0.189-0.625-0.296C82.707,36.759,82.313,36.838,81.992,36.67
					L81.992,36.67z"/>
				<path id="path8146" fill="#61653B" stroke="#000000" stroke-width="0.5" d="M81.127,30.74c-0.162,0.233-0.023,0.557-0.205,0.781
					c-0.041,0.347,0.178,0.65,0.242,0.981c0.127,0.285,0.35,0.577,0.27,0.909c-0.067,0.481-0.051,0.989,0.146,1.441
					c0.043,0.28,0.062,0.561,0.092,0.841c-0.121,0.207,0.136,0.445,0.287,0.204c0.144-0.147,0.265-0.408,0.51-0.361
					c0.316-0.017,0.052-0.358-0.141-0.356c-0.242-0.105-0.44-0.333-0.431-0.608c-0.004-0.293,0.146-0.557,0.24-0.827
					c0.109-0.28,0.473-0.128,0.635-0.24c0.045-0.236-0.305-0.212-0.391-0.383c-0.211-0.259-0.309-0.585-0.453-0.88
					c-0.094-0.248-0.053-0.517-0.066-0.773c-0.047-0.312-0.248-0.619-0.547-0.738C81.252,30.716,81.186,30.716,81.127,30.74
					L81.127,30.74z"/>
				<path id="path8148" fill="#475422" stroke="#000000" stroke-width="0.5" d="M86.58,35.312c-0.09,0.005-0.168,0.074-0.246,0.112
					c-0.184,0.108-0.365,0.228-0.539,0.354c-0.131,0.027-0.197,0.173-0.174,0.299c0.004,0.121,0.15,0.165,0.242,0.105
					c0.34-0.158,0.658-0.362,1.002-0.518c0.234-0.125,0.445-0.294,0.648-0.467c0.092-0.063,0.071-0.207-0.037-0.236
					c-0.158-0.074-0.328,0.007-0.472,0.078C86.856,35.117,86.715,35.212,86.58,35.312L86.58,35.312z"/>
				<path id="path8150" fill="#475422" stroke="#000000" stroke-width="0.5" d="M89.787,31.431
					c-0.086,0.091-0.135,0.213-0.197,0.321c-0.156,0.308-0.322,0.606-0.498,0.904c-0.031,0.084-0.139,0.188-0.096,0.273
					c0.111-0.022,0.203-0.102,0.305-0.148c0.182-0.084,0.357-0.183,0.5-0.322c0.176-0.165,0.404-0.292,0.496-0.527
					c0.076-0.177,0.15-0.37,0.109-0.564c-0.025-0.104-0.025-0.223-0.094-0.308c-0.104-0.068-0.215,0.04-0.312,0.076
					c-0.129,0.033-0.155,0.173-0.205,0.277L89.787,31.431L89.787,31.431L89.787,31.431z"/>
				<path id="path8152" fill="#475422" stroke="#000000" stroke-width="0.5" d="M37.65,52.815c-0.013,0.326,0.057,0.656-0.009,0.98
					c-0.023,0.251,0.043,0.537,0.26,0.69c0.133,0.097,0.32,0.1,0.458,0.012c0.151-0.076,0.279-0.191,0.43-0.269
					c0.039-0.122-0.109-0.178-0.191-0.228c-0.145-0.079-0.293-0.163-0.389-0.303C37.985,53.428,37.92,53.053,37.65,52.815
					L37.65,52.815z"/>
				<path id="path8154" fill="none" stroke="#000000" stroke-width="0.5" d="M26.644,38.935c-0.04,0.334,0.231,0.62,0.174,0.956
					c0.079,0.504,0.401,0.921,0.579,1.391c0.131,0.287,0.309,0.577,0.301,0.899c-0.074,0.543-0.512,0.961-0.554,1.512
					c-0.075,0.354-0.159,0.706-0.204,1.063c-0.145,0.214-0.267-0.207-0.214-0.338c0.034-0.394,0.057-0.792,0.007-1.187
					c-0.055-0.548-0.169-1.097-0.135-1.65c-0.022-0.493-0.17-0.981-0.086-1.476C26.564,39.716,26.694,39.333,26.644,38.935
					L26.644,38.935z"/>
				<path id="path8156" fill="#6A674E" stroke="#000000" stroke-width="0.5" d="M49.87,9.287c-0.197-0.268-0.606-0.022-0.877-0.182
					C48.691,9.14,48.419,9.023,48.2,8.821c-0.275-0.204-0.636-0.146-0.956-0.152c-0.539,0.018-1.051,0.195-1.569,0.318
					c-0.323,0.091-0.582,0.322-0.903,0.42c-0.363,0.151-0.773,0.253-1.06,0.537c-0.269,0.346-0.156,0.812-0.268,1.209
					c-0.104,0.233,0.096,0.467,0.285,0.229c0.269-0.195,0.344-0.542,0.595-0.751c0.263-0.265,0.495-0.597,0.88-0.688
					c0.346-0.142,0.709-0.038,1.064-0.027c0.404-0.029,0.788-0.169,1.183-0.249c0.321-0.02,0.655-0.032,0.952,0.114
					c0.33,0.09,0.679,0.072,1.012,0.152c0.307,0.017,0.568-0.186,0.765-0.4C50.218,9.364,49.97,9.346,49.87,9.287L49.87,9.287z"/>
				<path id="path8158" fill="#475422" stroke="#000000" stroke-width="0.5" d="M43.282,2.377c-1.252,1.048-2.789,2.809-3.557,3.313
					c-1.12,0.735-0.992,5.153-3.181,4.23c-2.183,1.577-3.163,4.609-4.528,6.94c-3.209,6.715-4.936,14.105-5.23,21.533
					c1.004,3.25,4.127,1.558,2.802-1.238c-0.562-0.723-2.002-1.289-0.887-2.999c-0.821-1.492,0.925-4.146,0.47-1.004
					c-0.602,2.633,1.554,5.127,3.064,6.864c0.582,1.912,1.351,3.846,2.506,4.497c-0.389,2.736,0.782,5.524,1.707,7.94
					c2.081-0.384,1.021-3.843,3.867-3.817c2.176-0.648,5.204-0.892,6.01,1.617c1.238,1.371-0.27,2.914,2.045,2.629
					c1.621,1.783,0.472,4.685,2.734,6.301c1.405,2.572,4.531,2.468,1.533,0.325c-2.097-0.611-3.446-4.706-1-4.634
					c1.195,2.45,4.308,3.639,5.875,1.185c-0.517-1.931-4.731-3.775-0.858-4.771c3.144-0.907-1.667,3.435,1.75,1.812
					c-0.435-2.807,3.723-1.365,5.362-2.842c1.99-0.053,2.97-2.19,3.441-3.124c-1.613,0.206,1.189-1.383-0.998-1.957
					c-3.14-1.029,3.885-1.96,0.076-2.511c-2.333,1.793-2.797-1.901-0.086-1.683c2.168-1.686-0.424,1.912,1.773,0.436
					c1.784-0.829,1.416,1.302,2.895,1.636c-1.549,2.929,4.596,0.745,1.285-1.162c-2.846-0.479,1.863-2.352,2.518-3.272
					c2.061,1.081,5.381-2.816,5.449-5.033c0.441-2.228-1.264-2.781-2.855-2.286c-2.104-0.864,2.709-2.877,3.459-4.292
					c1.871-0.174,3.748-1.299,5.191-0.901c2.701,0.801,1.424-4.489,4.279-2.678c1.146-0.615,1.713-3.133,2-0.542
					c-1.191,1.748-4.66,4.597-2.008,6.448c1.371,3.268,0.973-2.487,2.787-1.709c-0.689-0.915,1.258-2.69-1.074-2.519
					c0.182-3.023,4.158-2.245,4.686-4.916c1.488-1.008,3.42-2.279,0.293-2.302c-0.85-0.742,2.008-0.155,0.512-1.315
					c1.508-0.728,2.834-0.23,2.613-2.157c-0.715-1.45-4.049-1.335-5.711-0.1c-1.471,0.401-2.783,0.688-2.461,2.188
					c-1.084-1.809-1.604,0.884-3.291,0.34c-1.836,1.3-3.414-1.021-5.551,0.608c-1.805-0.108-6.273-1.274-6.385,1.051
					c-2.033-0.052-3.248,0.34-4.734,0.791c-0.967-0.659,0.443-2.804-2.035-2.021c-1.896,0.178-3.689,0.429-5.767-0.331
					c-1.225,0.347-5.646,0.656-2.267-0.359c2.265,0.141,3.56-2.735,0.613-2.419c-1.876-2.001-4.074,1.52-6.748-0.198
					c-1.89-0.612-2.699,1.938-4.595,0.283c-0.01,1.033-0.947,3.985-1.178,1.352c-0.298-2.339-1.58,1.346-1.766-1.225
					c-1.221-0.933-0.467,5.617-1.525,2.401c-0.535,0.357-1.406,1.459-2.679,0.584c1.47-0.887,4.109-2.845,3.729-4.589
					c-2.332-0.527-3.004,5.071-3.842,1.091c0.121-3.292-1.11,2.348-1.352-1.177c-0.543-1.305-3.225-0.862-1.859-2.085
					c-1.219-0.557-4.162,0.894-1.667-1.049c0.509-1.803,2.075-2.331,0.849-0.156c1.664,0.525,2.07-4.542,3.754-5.744
					c0.404-0.362,0.506-1.646-0.255-1.28L43.282,2.377z M31.883,17.709c0.091,0.158-0.005,0.424-0.059,0.606
					c-0.061,0.226-0.322,0.417-0.185,0.667c0.047,0.195,0.435,0.036,0.31,0.298c-0.102,0.312-0.522,0.372-0.594,0.704
					c-0.009,0.279-0.16,0.518-0.174,0.797c-0.047,0.237-0.159,0.478-0.157,0.722c-0.052,0.299-0.03,0.603-0.17,0.882
					c-0.089,0.208-0.077,0.577-0.361,0.612c-0.229-0.087-0.261-0.41-0.24-0.622c0.065-0.244,0.235-0.453,0.248-0.713
					c0.062-0.261,0.102-0.526,0.181-0.783c0.076-0.237,0.121-0.48,0.138-0.729c0.094-0.252,0.131-0.525,0.181-0.784
					c0.112-0.29,0.337-0.521,0.396-0.833c0.091-0.226,0.133-0.502,0.343-0.654C31.795,17.826,31.844,17.774,31.883,17.709z
					 M32.34,21.25c0.2,0.175,0.125,0.765,0.457,0.98c0.068-0.149,0.261-0.355,0.442-0.258c0.302,0.332,0.071,0.769-0.017,1.134
					c0.02,0.471-0.207,0.926-0.101,1.395c0.071,0.412-0.047,0.931-0.433,1.157c-0.463,0.114-0.361-0.625-0.686-0.807
					c-0.104,0.229-0.132,0.561-0.249,0.817c-0.017,0.442-0.477,0.826-0.229,1.266c0.104,0.186,0.506,0.793,0.024,0.672
					c-0.224-0.131-0.396,0.006-0.249,0.235c-0.017,0.418-0.423,0.739-0.316,1.188c0.096,0.381-0.357,0.922-0.716,0.66
					c-0.142-0.343-0.169-0.724-0.22-1.094c-0.109-0.365-0.074-0.762,0.078-1.111c0.166-0.355,0.229-0.756,0.5-1.052
					c0.251-0.319,0.232-0.76,0.396-1.124c0.185-0.36,0.197-0.762,0.247-1.155c0.046-0.339,0.218-0.659,0.159-1.013
					c-0.017-0.395,0.216-0.747,0.402-1.075C32.387,22.141,32.105,21.503,32.34,21.25L32.34,21.25z M33.292,26.914
					c0.055-0.031,0.125-0.044,0.188-0.037c0.115,0.011,0.222,0.073,0.339,0.03c0.174-0.047,0.279-0.223,0.449-0.279
					c0.105,0.068,0.214,0.168,0.241,0.297c-0.006,0.133-0.046,0.261-0.114,0.378c-0.138,0.139-0.337,0.21-0.434,0.39
					c-0.117,0.188-0.174,0.439-0.361,0.578c-0.105,0.055-0.227,0.128-0.35,0.128c-0.133-0.018-0.153-0.177-0.15-0.288
					c0.023-0.145-0.003-0.291-0.017-0.436c0-0.209,0-0.426,0.087-0.62C33.192,26.993,33.237,26.944,33.292,26.914L33.292,26.914z
					 M59.257,30.452c0.054-0.029,0.112-0.049,0.175-0.065c0.203-0.039,0.438-0.046,0.584,0.121c0.254-0.078,0.488-0.223,0.742-0.312
					c0.252-0.06,0.375,0.307,0.146,0.425c-0.215,0.169-0.485,0.128-0.712,0.009c-0.262-0.112-0.576,0.077-0.714,0.298
					c-0.123,0.286-0.322,0.533-0.458,0.812c-0.159,0.193-0.278,0.465-0.526,0.554c-0.275,0.141-0.554,0.29-0.873,0.287
					c-0.283,0.096-0.536,0.304-0.833,0.337c-0.257,0.038-0.499,0.212-0.765,0.188c-0.214-0.049-0.399-0.191-0.624-0.239
					c-0.026-0.015-0.007-0.029,0.01-0.054c0.215-0.023,0.479,0.02,0.712-0.043c0.312-0.029,0.568-0.213,0.854-0.33
					c0.309-0.153,0.637-0.277,0.934-0.451c0.178-0.195,0.351-0.404,0.549-0.58c0.144-0.185,0.267-0.389,0.443-0.549
					C58.973,30.688,59.094,30.541,59.257,30.452L59.257,30.452z"/>
				<path id="path3801" fill="#73662F" d="M95.727-3.088c1.693,0.849,2.217,1.97,2.631,1.981c0.414,0.012,0.373-0.516,0.474-1.039
					c0.096-0.523-0.381-1.256-0.789-1.544s-3.03-1.521-3.854-1.821c-0.819-0.299-0.094,1.409,0.095,1.663
					C94.467-3.592,95.559-3.009,95.727-3.088z"/>
				<path id="path5439" fill="#DCDBDD" stroke="#000000" stroke-width="0.5" d="M62.817-7.777c0.292,1.162,3.792-0.336,1.547,0.602
					C62.6-6.521,60.679-6.822,59.23-5.607c-1.927,0.297-3.781,1.536-4.991,3.091c-0.397,1.026-3.106,2.28-2.034,3.142
					c-0.159,0.786-1.021,2.061,0.533,2.433c1.362,0.872,2.185,2.403,0.487,3.46c-0.704,1,1.824,1.681,2.554,0.931
					c1.621,0.839,4.681,0.675,4.761,2.998c1.379-0.994,2.301,0.654,3.627,0.354c-1.564,1.61,0.89,3.483,2.58,3.521
					c1.019,0.25-0.61,2.571,1.076,1.077c0.971-1.126,2.344,0.844,3.026-0.913c1.246-0.078,3.799-0.5,3.648,1.29
					c0.65,1.014,2.107-1.004,2.125,0.724c-2.771,0.415,2.543,1.735,1.713-0.507c-0.816-0.806-2.129-2.083-0.07-1.563
					c0.703-0.165,2.869-1.453,2.498,0.021c-1.033-0.166-2.074,1.663-1.092,1.641c0.75-1.276,2.201,0.65,3.146-0.821
					c2.08,0.038,3.965-1.385,5.873-1.516c1.356,1.285,2.68-2.043,4.162-0.307c0.795,0.164,1.067,0.837,1.071,1.371
					c1.166-0.948,3.55,0.384,4.191-0.44c-0.394-0.93-3.668-1.766-1.363-2.366c1.474-0.286-1.765-2.537,0.854-1.886
					c0.773-1.499,0.938-3.833,1.486-5.643c0.492-1.467,1.102-3.803-1.057-4.128c-2.057-0.91-1.029-3.58-3.273-4.179
					c-1.01-1.853,1.435-0.909-4.984-3.193C84.604-8.61,79.088-9.787,73.625-9.204C69.969-8.984,66.449-8.197,62.817-7.777
					L62.817-7.777z"/>
				<path id="path4652" fill="#937D59" fill-opacity="0.6809" d="M90.453,29.945c0.174-0.435-0.08-0.874-0.232-1.275
					c-0.088-0.334-0.539-1.064-0.396-1.423c0.104-0.308,0.563-0.954,0.567-1.29c0.369-1.286,1.043-1.676,1.877-2.707
					c0.203-0.282-0.19,0.899-0.428,1.171c-0.195,0.399-0.584,1.276-0.699,1.714c-0.133,1.733-0.354,0.845-0.479,2.098
					C90.631,28.422,90.594,29.809,90.453,29.945L90.453,29.945z"/>
				<path id="path5542" fill="#937D59" fill-opacity="0.5429" d="M61.088,30.063c1.28-0.864,2.861-0.078,4.195-0.811
					c1.518-0.267,2.842-1.254,4.432-1.184c1.287-0.572,6.547-1.657,5.924-3.59c-0.336-1.401-6.557-0.587-6.307-2.091
					c-0.082-0.662,2.521-3.754,3.143-2.392c0.34,1.539,7.242,1.029,6.896,2.826c1.217-0.045,1.881,1.773,3.188,1.215
					c1.961,0.028,0.896,0.313,2.533-0.79c1.564-0.76,3.084-1.604,4.549-2.541c1.197-0.507,2.146-1.432,3.185-2.159
					c1.245,0.241,2.166-0.561,3.096-1.146c1.187,1.043-0.149,1.813-1.103,2.226c-1.094,0.567-2.438,0.892-3.258,1.815
					c-0.983,0.703-1.451,2.166-2.881,1.471c-1.039,0.653-1.678,1.945-2.959,2.325c-1.328,1.196-3.236,0.027-4.662,1.119
					c-2.848,0.295-3.645,2.665-5.578,4.284c-1.192,0.598-2.754-0.454-3.924,0.198c-1.416,0.666-3.34,0.294-4.979,0.11
					c-1.469,0.423-2.806-0.356-4.228-0.46C61.925,30.432,61.337,30.504,61.088,30.063L61.088,30.063z"/>
				<path id="path6430" fill="#937D59" fill-opacity="0.5095" d="M29.642,22.746c-0.412,1.863-0.314,3.924-0.792,5.693
					c-1.247,0.415-1.412,3.243,0.137,3.074c2.375,0.607,0.965,2.896,1.105,4.64c0.587,2.472,3.863,2.793,4.203,5.462
					c0.842,1.839,3.234,1.902,5.495,2.163c2.263,0.063,2.39,4.211,5,4.135c-0.284-1.019,0.31-1.932,0.9-2.569
					c0.872-0.407,0.974-0.878,1.782-0.387c0.809,0.492,1.397,1.562,1.06,2.493c-0.254,0.697-0.548,2.18-1.125,2.418
					c0.026,3.417,1.709,1.209,3.135,1.78c1.56,1.472-0.144-1.141,2.064-0.657c2.278-0.812,3.499-0.062,3.215-1.157
					c0.894-1.71,2.222-1.582,4.009-1.136c1.831,0.477,7.787-3.48,4.631-4.343c-1.508,0.48-1.227-1.058-0.518-1.841
					c1.476-1.298,1.558-4.119-0.568-4.804c-1.908-1.125-3.889-1.75-6.111-1.652c-1.449-0.513-2.474-3.218-4.323-1.843
					c-1.815,1.289-2.306-3.386-4.354-2.934c-2.326,0.479-6.256,3.283-7.8,1.642c-2.05-0.943-4.017-5.985-5.243-7.947
					c-0.854-0.964-4.393,1.886-4.048,3.354c0.197,1.515-1.715,2.777-1.686-0.101C30.212,26.483,31.004,23.315,29.642,22.746
					L29.642,22.746z M33.034,26.728c0.143-0.09,0.519,0.04,0.881-0.086c0.002-0.05,0.17-0.216,0.368-0.309
					c0.198-0.093,0.409,0.276,0.538,0.602c0.127,0.327-0.373,0.713-0.542,0.815c-0.169,0.104-0.439,0.596-0.585,0.904
					c-0.146,0.31-0.719-0.099-0.8-0.325c-0.082-0.228,0.014-1.364,0.097-1.548C33.002,26.758,33.013,26.74,33.034,26.728
					L33.034,26.728z M36.508,36.556c0.477-0.222,1.135,2.846,2.16,4.01c0.405,0.459,2.958,2.198,6.117,4.005
					c0.074,0.16-5.265-1.981-5.914-2.547c-0.65-0.565-1.962-1.509-2.343-1.911c-0.38-0.402-1.318-0.535-1.864-0.667
					C34.121,39.313,37.1,39.271,36.508,36.556L36.508,36.556z"/>
				<path id="path20636" fill="#827E58" fill-opacity="0.6619" d="M34.99,24.186c0.774-1.858,2.085-3.29,2.556-4.041
					c0.471-0.75,1.352-2.898,1.814-3.355c0.461-0.457,1.527-1.484,1.887-1.749c0.36-0.264,0.936-0.58,1.067-0.401
					c0.132,0.18,0.108,0.336-0.635,1.021c-0.742,0.685-1.269,1.315-1.417,1.723c-0.148,0.406-0.206,1.109-1.004,1.674
					c-0.799,0.565-2.643,2.922-2.813,3.387C36.277,22.908,35.065,24.246,34.99,24.186L34.99,24.186z"/>
				<path id="path21529" fill="#484424" d="M51.29,14.846c1.118,0.516,2.382-0.299,3.115-0.676c0.73-0.318,1.632,0.315,2.454,0.602
					c1.5-0.222,2.21-0.685,3.74-0.967c0.403-0.074,2.305,0.67,3.151,0.625c-2.372,0.963-4.553,1.15-5.719,1.329
					c-0.857-0.264-2.109-0.386-2.977-0.552C54.028,15.304,52.554,16.638,51.29,14.846L51.29,14.846z"/>
				<path id="path21531" fill="#484424" d="M59.832,17.426c1.196,0.141,3.05-0.186,4.242-0.332c1.219,0.518,2.67,0.532,3.381,0.494
					c0.727,0.244,2.631-0.237,3.34-0.226c-1.48,1.55-3.094,1.493-4.201,1.321c-1.006-0.079-1.576-0.305-2.529-0.611
					C62.78,18.569,60.953,18.345,59.832,17.426L59.832,17.426z"/>
				<path id="path25077" fill="#484424" d="M47.493,17.052c0.082-0.859,0.195-2.892,0.369-2.729c0.17,0.161,0.182,1.217,0.397,1.165
					c0.217-0.052,1.058-0.733,1.269-0.591s0.776,1.665,0.518,1.834c-0.258,0.169-1.49-0.608-1.73-0.4
					C48.074,16.539,47.554,16.975,47.493,17.052L47.493,17.052z"/>
				<path id="path25964" fill="#6F5735" fill-opacity="0.782" d="M75.141,70.736c0.363-0.101,1.664-1.312,4.049-1.504
					c3.277,2.24,5.855,0.641,5.968,0.588c0.225-0.104,0.399-1.482,0.602-1.781c0.203-0.299,0.88,0.271,1.339,0.674
					c0.459,0.398,0.336,1.891,1.104,2.076c0.771,0.188,1.959,0.248,1.688,0.986c-0.269,0.74-1.976,0.875-2.188,1.586
					c-0.214,0.715,4.639,2.455,0.049,3.697c-2.676,0.727-6.233-1.142-7.252-1.277c-1.021-0.139-9.19,1.043-9.851,1.045
					c-3.662,0.004-7.084-2.461-7.015-3.041c1.117-1.531,9.914-2.957,11.507-3.045V70.736z"/>
				<path id="path29508" fill="#91899D" fill-opacity="0.4028" d="M73.545,11.555c-0.785,0.367-1.398,1.539-0.68,1.614
					c0.717,0.076,2.262-0.712,3.039-0.802c0.777-0.09,3.348-0.028,3.957-0.003c1.879,0.079,5.354,0.068,9.043-1.829
					c-4.205,0.852-9.246,1.104-9.711,0.98c-0.467-0.123-2.662-0.874-3.326-0.837C75.201,10.715,73.545,11.555,73.545,11.555z"/>
				<path id="path30395" fill="#91899D" fill-opacity="0.4028" d="M74.213,14.589c0.201,0.725,0.051,1.136,0.436,1.229
					c0.386,0.093,1.57-0.731,1.812-0.365c0.237,0.365-0.248,0.935-0.26,1.349c-0.013,0.414,1.067,0.388,1.403,0.231
					c0.338-0.157,1.033-0.277,0.605-0.897c-0.424-0.62-1.234-1.333-1.086-1.745c0.15-0.412,1.629-0.896,1.002-1.218
					c-0.627-0.322-3.09-0.334-3.502,0.541C74.213,14.589,74.381,14.51,74.213,14.589z"/>
				<path id="path31282" fill="#91899D" fill-opacity="0.4028" d="M70.195,5.928c0.238,0.366-0.434,0.635-0.445,1.05
					c-0.012,0.414,1.068,0.389,1.404,0.231c0.336-0.156,1.031-0.275,0.604-0.896c-0.424-0.621,0.343-1.056,0.49-1.467
					C70.938,3.273,70.902,4.228,70.195,5.928L70.195,5.928z"/>
				<path id="path31284" fill="#91899D" fill-opacity="0.4028" d="M63.04,5.792c0.054,0.259-0.115,0.822-0.231,1.052
					c-0.117,0.229,0.575,0.456,0.83,0.444c0.255-0.013,0.728,0.076,0.62-0.366c-0.107-0.442,0.137-0.472,0.339-0.667
					c0.203-0.196,0.254-0.561-0.059-0.881C64.328,5.245,63.614,5.554,63.04,5.792L63.04,5.792z"/>
				<path id="path31286" fill="#91899D" fill-opacity="0.4028" d="M60.734,9.97c1.994,0.251,2.845,0.9,3.946,0.622
					c-0.22,0.195-1.829,1.532-0.17,2.422c0.311,0.168,1.723-1.776,2.16-1.979c0.436-0.203,3.877-0.605,3.514-1.007
					C69.82,9.625,71.225,9.48,70.117,8.02c-0.275-0.362-2.557,0.396-3.229,0.28C66.467,8.318,63.456,8.53,60.734,9.97L60.734,9.97z"
					/>
				<path id="path2027" fill="#465322" stroke="#000000" stroke-width="0.5" stroke-linecap="round" stroke-linejoin="round" d="
					M115.213,12.056c-2.289-1.39-5.375-4.934-6.213-4.68c-0.836,0.253-3.102,3.153-3.102,3.153s-6.121-0.832-5.771-1.542
					c0.353-0.709,2.662-1.172,2.879-3.048c-0.131-1.901-1.571-3.858-1.646-5.58c-0.066-1.556-1.766-2.217-3.576-3.861
					c0.643,0.427,6.525,3.305,10.029,6.722C111.318,6.636,115.219,11.78,115.213,12.056z"/>
				<path id="path2914" fill="#6F693F" d="M103.826,4.329c0.209,0.448,1.129,1.249,1.703,2.482c0.576,1.234,1.498,1.895,1.867,1.517
					c0.371-0.377,0.977-1.274,1.998-1.135c1.02,0.138,4.19,3.574,4.735,3.866c0.547,0.292,0.104-0.801-0.354-1.2
					c-0.457-0.4-3.756-4.253-4.131-4.762c-0.373-0.508-1.853-2.071-2.326-1.918C107.023,3.877,103.859,2.401,103.826,4.329z"/>
				<path id="path4688" fill="#91899D" fill-opacity="0.4028" d="M95.117,11.83c0.799,0.334,1.461,1.479,0.746,1.584
					c-0.713,0.105-2.289-0.617-3.068-0.674c-0.783-0.056-3.348,0.111-3.955,0.163c-1.104,0.252-1.215-0.956,0.633-0.875
					c0.461-0.143,2.623-0.986,3.287-0.976C93.426,11.061,95.117,11.83,95.117,11.83L95.117,11.83z"/>
				<path id="path4690" fill="#91899D" fill-opacity="0.6209" d="M94.197-2.214c0.434,0.056,0.201,0.743,0.51,1.021
					c0.309,0.278,0.988-0.561,1.088-0.919c0.098-0.358,0.459-0.964-0.289-1.043c-0.75-0.078-0.586-0.944-0.801-1.324
					C92.656-4.5,93.361-3.855,94.197-2.214L94.197-2.214z"/>
				<path id="path4692" fill="#91899D" fill-opacity="0.4028" d="M54.112,1.821c0.126,0.418,0.765,0.075,1.091,0.333
					c0.324,0.259-0.39,1.069-0.726,1.226c-0.337,0.157-0.875,0.612-1.076-0.113c-0.202-0.724-1.029-0.418-1.439-0.566
					C51.6,0.684,52.353,1.27,54.112,1.821L54.112,1.821z"/>
			</g>
		</g>
	</g>
</g>
</svg>
